<?xml version="1.0" encoding="UTF-8" standalone="no"?>
<!DOCTYPE svg PUBLIC "-//W3C//DTD SVG 1.1//EN" "http://www.w3.org/Graphics/SVG/1.1/DTD/svg11.dtd">
<svg width="100%" height="100%" viewBox="0 0 851 456" version="1.1" xmlns="http://www.w3.org/2000/svg" xmlns:xlink="http://www.w3.org/1999/xlink" xml:space="preserve" xmlns:serif="http://www.serif.com/" style="fill-rule:evenodd;clip-rule:evenodd;stroke-linejoin:round;stroke-miterlimit:2;">
    <g transform="matrix(1.27896,0,0,0.949095,0.352618,89.5079)">
        <path d="M57.24,62.084C59.554,62.084 61.535,61.216 63.183,59.48C64.83,57.745 65.654,54.34 65.654,49.266C65.654,44.193 64.83,40.788 63.183,39.052C61.535,37.317 59.554,36.449 57.24,36.449L34.839,36.449L34.839,62.084L57.24,62.084ZM18.957,123.368L18.957,119.763C21.552,119.763 22.849,118.561 22.849,116.158L22.849,25.233C22.849,22.83 21.552,21.629 18.957,21.629L18.957,18.024L55.978,18.024C62.709,18.024 68.003,20.394 71.86,25.133C75.716,29.873 77.644,37.918 77.644,49.266C77.644,60.615 75.716,68.66 71.86,73.399C68.003,78.139 62.709,80.509 55.978,80.509L34.839,80.509L34.839,116.158C34.839,118.561 35.96,119.763 38.204,119.763L38.204,123.368L18.957,123.368Z" style="fill-rule:nonzero;stroke:black;stroke-width:0.89px;"/>
    </g>
    <g transform="matrix(1.27896,0,0,0.949095,0.352618,89.5079)">
        <path d="M113.193,48.866C110.949,48.866 108.758,49.567 106.619,50.969C104.481,52.371 102.57,54.373 100.887,56.977C99.205,59.58 97.855,62.751 96.838,66.49C95.822,70.228 95.313,74.501 95.313,79.307C95.313,84.114 95.822,88.387 96.838,92.125C97.855,95.863 99.205,99.034 100.887,101.638C102.57,104.242 104.481,106.244 106.619,107.646C108.758,109.048 110.949,109.749 113.193,109.749C115.436,109.749 117.628,109.048 119.766,107.646C121.905,106.244 123.815,104.242 125.498,101.638C127.181,99.034 128.531,95.863 129.547,92.125C130.564,88.387 131.072,84.114 131.072,79.307C131.072,74.501 130.564,70.228 129.547,66.49C128.531,62.751 127.181,59.58 125.498,56.977C123.815,54.373 121.905,52.371 119.766,50.969C117.628,49.567 115.436,48.866 113.193,48.866ZM113.193,34.046C117.049,34.046 120.678,34.98 124.078,36.849C127.479,38.719 130.441,41.522 132.965,45.261C135.49,48.999 137.488,53.706 138.96,59.38C140.433,65.055 141.169,71.697 141.169,79.307C141.169,86.918 140.433,93.56 138.96,99.235C137.488,104.909 135.49,109.616 132.965,113.354C130.441,117.092 127.479,119.796 124.078,121.465C120.678,123.134 117.049,123.969 113.193,123.969C109.336,123.969 105.708,123.134 102.307,121.465C98.907,119.796 95.944,117.092 93.42,113.354C90.896,109.616 88.898,104.909 87.425,99.235C85.953,93.56 85.217,86.918 85.217,79.307C85.217,71.697 85.953,65.055 87.425,59.38C88.898,53.706 90.896,48.999 93.42,45.261C95.944,41.522 98.907,38.719 102.307,36.849C105.708,34.98 109.336,34.046 113.193,34.046Z" style="fill-rule:nonzero;stroke:black;stroke-width:0.89px;"/>
    </g>
    <g transform="matrix(1.27896,0,0,0.949095,0.352618,89.5079)">
        <path d="M182.397,73.299C189.268,73.299 192.704,69.16 192.704,60.882C192.704,57.544 191.88,54.907 190.232,52.971C188.585,51.035 185.973,50.067 182.397,50.067L165.779,50.067L165.779,73.299L182.397,73.299ZM182.607,35.247C188.848,35.247 193.721,37.217 197.226,41.155C200.732,45.094 202.485,51.803 202.485,61.283C202.485,64.888 202.134,68.092 201.433,70.896C200.732,73.7 199.803,76.136 198.646,78.206C197.489,80.275 196.21,81.944 194.807,83.213C193.405,84.481 191.968,85.449 190.495,86.117L200.802,114.756C201.363,116.225 201.977,117.326 202.643,118.06C203.309,118.795 204.028,119.362 204.799,119.763L204.799,123.368L188.707,123.368L188.707,119.763C189.619,119.763 190.075,119.162 190.075,117.96C190.075,116.625 189.549,114.556 188.497,111.752L180.188,88.12L165.569,88.12L165.569,116.759C165.569,117.827 165.797,118.595 166.253,119.062C166.708,119.529 167.147,119.763 167.567,119.763L167.567,123.368L153.579,123.368L153.579,119.763C154.841,119.763 155.472,118.761 155.472,116.759L155.472,41.856C155.472,39.853 154.841,38.852 153.579,38.852L153.579,35.247L182.607,35.247Z" style="fill-rule:nonzero;stroke:black;stroke-width:0.89px;"/>
    </g>
    <g transform="matrix(1.27896,0,0,0.949095,0.352618,89.5079)">
        <path d="M229.304,119.763C229.655,119.763 230.005,119.529 230.356,119.062C230.707,118.595 230.882,117.827 230.882,116.759L230.882,50.067L217.209,50.067C216.648,50.067 216.122,50.334 215.632,50.869C215.141,51.403 214.895,52.27 214.895,53.472L213.002,53.472L213.002,30.441L214.895,30.441C214.895,32.31 215.141,33.578 215.632,34.246C216.122,34.913 216.648,35.247 217.209,35.247L254.651,35.247C255.212,35.247 255.738,34.913 256.229,34.246C256.719,33.578 256.965,32.31 256.965,30.441L258.858,30.441L258.858,53.472L256.965,53.472C256.965,52.27 256.719,51.403 256.229,50.869C255.738,50.334 255.212,50.067 254.651,50.067L240.978,50.067L240.978,116.759C240.978,118.761 241.61,119.763 242.872,119.763L242.872,123.368L229.304,123.368L229.304,119.763Z" style="fill-rule:nonzero;stroke:black;stroke-width:0.89px;"/>
    </g>
    <g transform="matrix(1.27896,0,0,0.949095,0.352618,89.5079)">
        <path d="M314.179,52.871C314.179,52.204 313.934,51.57 313.443,50.969C312.952,50.368 312.111,50.067 310.919,50.067L282.417,50.067L282.417,71.297L300.927,71.297C302.119,71.297 302.856,71.063 303.136,70.596C303.416,70.128 303.592,69.361 303.662,68.292L305.555,68.292L305.555,89.321L303.662,89.321C303.592,88.253 303.416,87.452 303.136,86.918C302.856,86.384 302.119,86.117 300.927,86.117L282.417,86.117L282.417,116.759C282.417,117.827 282.662,118.595 283.153,119.062C283.644,119.529 284.205,119.763 284.836,119.763L284.836,123.368L270.322,123.368L270.322,119.763C271.654,119.763 272.32,118.761 272.32,116.759L272.32,41.856C272.32,39.853 271.584,38.852 270.112,38.852L270.112,35.247L310.919,35.247C312.111,35.247 312.952,34.913 313.443,34.246C313.934,33.578 314.179,32.71 314.179,31.642L316.072,31.642L316.072,52.871L314.179,52.871Z" style="fill-rule:nonzero;stroke:black;stroke-width:0.89px;"/>
    </g>
    <g transform="matrix(1.27896,0,0,0.949095,0.352618,89.5079)">
        <path d="M352.778,48.866C350.534,48.866 348.343,49.567 346.204,50.969C344.066,52.371 342.155,54.373 340.473,56.977C338.79,59.58 337.44,62.751 336.423,66.49C335.407,70.228 334.898,74.501 334.898,79.307C334.898,84.114 335.407,88.387 336.423,92.125C337.44,95.863 338.79,99.034 340.473,101.638C342.155,104.242 344.066,106.244 346.204,107.646C348.343,109.048 350.534,109.749 352.778,109.749C355.022,109.749 357.213,109.048 359.351,107.646C361.49,106.244 363.4,104.242 365.083,101.638C366.766,99.034 368.116,95.863 369.132,92.125C370.149,88.387 370.657,84.114 370.657,79.307C370.657,74.501 370.149,70.228 369.132,66.49C368.116,62.751 366.766,59.58 365.083,56.977C363.4,54.373 361.49,52.371 359.351,50.969C357.213,49.567 355.022,48.866 352.778,48.866ZM352.778,34.046C356.634,34.046 360.263,34.98 363.663,36.849C367.064,38.719 370.026,41.522 372.55,45.261C375.075,48.999 377.073,53.706 378.545,59.38C380.018,65.055 380.754,71.697 380.754,79.307C380.754,86.918 380.018,93.56 378.545,99.235C377.073,104.909 375.075,109.616 372.55,113.354C370.026,117.092 367.064,119.796 363.663,121.465C360.263,123.134 356.634,123.969 352.778,123.969C348.921,123.969 345.293,123.134 341.892,121.465C338.492,119.796 335.529,117.092 333.005,113.354C330.481,109.616 328.483,104.909 327.01,99.235C325.538,93.56 324.802,86.918 324.802,79.307C324.802,71.697 325.538,65.055 327.01,59.38C328.483,53.706 330.481,48.999 333.005,45.261C335.529,41.522 338.492,38.719 341.892,36.849C345.293,34.98 348.921,34.046 352.778,34.046Z" style="fill-rule:nonzero;stroke:black;stroke-width:0.89px;"/>
    </g>
    <g transform="matrix(1.27896,0,0,0.949095,0.352618,89.5079)">
        <path d="M408.204,35.247L408.204,38.852C406.592,38.852 405.785,39.853 405.785,41.856L405.785,108.547L434.182,108.547C435.023,108.547 435.725,108.18 436.286,107.446C436.846,106.712 437.127,105.677 437.127,104.342L439.02,104.342L439.02,125.37L437.127,125.37C437.127,124.302 436.846,123.702 436.286,123.568C435.725,123.435 435.023,123.368 434.182,123.368L392.954,123.368L392.954,119.763C394.777,119.763 395.689,118.761 395.689,116.759L395.689,41.856C395.689,39.853 394.777,38.852 392.954,38.852L392.954,35.247L408.204,35.247Z" style="fill-rule:nonzero;stroke:black;stroke-width:0.89px;"/>
    </g>
    <g transform="matrix(1.27896,0,0,0.949095,0.352618,89.5079)">
        <path d="M452.903,119.763C454.025,119.763 454.796,119.529 455.217,119.062C455.637,118.595 455.848,117.827 455.848,116.759L455.848,41.856C455.848,40.788 455.637,40.02 455.217,39.553C454.796,39.086 454.025,38.852 452.903,38.852L452.903,35.247L468.889,35.247L468.889,38.852C466.926,38.852 465.944,39.853 465.944,41.856L465.944,116.759C465.944,118.761 466.926,119.763 468.889,119.763L468.889,123.368L452.903,123.368L452.903,119.763Z" style="fill-rule:nonzero;stroke:black;stroke-width:0.89px;"/>
    </g>
    <g transform="matrix(1.27896,0,0,0.949095,0.352618,89.5079)">
        <path d="M510.538,48.866C508.294,48.866 506.103,49.567 503.965,50.969C501.826,52.371 499.915,54.373 498.233,56.977C496.55,59.58 495.2,62.751 494.184,66.49C493.167,70.228 492.658,74.501 492.658,79.307C492.658,84.114 493.167,88.387 494.184,92.125C495.2,95.863 496.55,99.034 498.233,101.638C499.915,104.242 501.826,106.244 503.965,107.646C506.103,109.048 508.294,109.749 510.538,109.749C512.782,109.749 514.973,109.048 517.111,107.646C519.25,106.244 521.16,104.242 522.843,101.638C524.526,99.034 525.876,95.863 526.892,92.125C527.909,88.387 528.417,84.114 528.417,79.307C528.417,74.501 527.909,70.228 526.892,66.49C525.876,62.751 524.526,59.58 522.843,56.977C521.16,54.373 519.25,52.371 517.111,50.969C514.973,49.567 512.782,48.866 510.538,48.866ZM510.538,34.046C514.394,34.046 518.023,34.98 521.423,36.849C524.824,38.719 527.786,41.522 530.311,45.261C532.835,48.999 534.833,53.706 536.305,59.38C537.778,65.055 538.514,71.697 538.514,79.307C538.514,86.918 537.778,93.56 536.305,99.235C534.833,104.909 532.835,109.616 530.311,113.354C527.786,117.092 524.824,119.796 521.423,121.465C518.023,123.134 514.394,123.969 510.538,123.969C506.682,123.969 503.053,123.134 499.653,121.465C496.252,119.796 493.29,117.092 490.765,113.354C488.241,109.616 486.243,104.909 484.77,99.235C483.298,93.56 482.562,86.918 482.562,79.307C482.562,71.697 483.298,65.055 484.77,59.38C486.243,53.706 488.241,48.999 490.765,45.261C493.29,41.522 496.252,38.719 499.653,36.849C503.053,34.98 506.682,34.046 510.538,34.046Z" style="fill-rule:nonzero;stroke:black;stroke-width:0.89px;"/>
    </g>
    <g transform="matrix(1.27896,0,0,0.949095,0.352618,89.5079)">
        <path d="M52.613,294.001C55.137,294.001 57.24,293.634 58.923,292.9C60.606,292.165 61.938,291.131 62.92,289.795C63.901,288.46 64.603,286.891 65.023,285.089C65.444,283.287 65.654,281.317 65.654,279.181C65.654,277.045 65.444,275.075 65.023,273.273C64.603,271.47 63.901,269.902 62.92,268.566C61.938,267.231 60.606,266.196 58.923,265.462C57.24,264.728 55.137,264.361 52.613,264.361L34.418,264.361L34.418,294.001L52.613,294.001ZM55.347,247.137C58.713,247.137 61.763,247.705 64.497,248.839C67.232,249.974 69.581,251.777 71.544,254.247C73.507,256.717 75.015,259.921 76.067,263.86C77.118,267.799 77.644,272.639 77.644,278.38C77.644,287.192 76.277,293.934 73.542,298.607C70.808,303.281 67.127,306.418 62.499,308.02L76.487,346.072C76.978,347.408 77.556,348.209 78.223,348.476C78.889,348.743 79.502,348.876 80.063,348.876L80.063,352.481L60.396,352.481L60.396,348.876C61.027,348.876 61.57,348.676 62.026,348.275C62.482,347.875 62.709,347.341 62.709,346.673C62.709,346.006 62.569,345.238 62.289,344.37C62.008,343.502 61.588,342.334 61.027,340.865L49.458,309.623L34.418,309.623L34.418,345.271C34.418,346.473 34.646,347.374 35.101,347.975C35.557,348.576 36.381,348.876 37.573,348.876L37.573,352.481L19.378,352.481L19.378,348.876C21.411,348.876 22.428,347.675 22.428,345.271L22.428,254.347C22.428,251.944 21.411,250.742 19.378,250.742L19.378,247.137L55.347,247.137Z" style="fill-rule:nonzero;stroke:black;stroke-width:0.89px;"/>
    </g>
    <g transform="matrix(1.27896,0,0,0.949095,0.352618,89.5079)">
        <path d="M96.365,348.876C97.487,348.876 98.258,348.643 98.679,348.175C99.1,347.708 99.31,346.94 99.31,345.872L99.31,270.97C99.31,269.902 99.1,269.134 98.679,268.667C98.258,268.199 97.487,267.966 96.365,267.966L96.365,264.361L112.351,264.361L112.351,267.966C110.388,267.966 109.407,268.967 109.407,270.97L109.407,345.872C109.407,347.875 110.388,348.876 112.351,348.876L112.351,352.481L96.365,352.481L96.365,348.876Z" style="fill-rule:nonzero;stroke:black;stroke-width:0.89px;"/>
    </g>
    <g transform="matrix(1.27896,0,0,0.949095,0.352618,89.5079)">
        <path d="M141.484,345.872C141.484,347.875 142.15,348.876 143.483,348.876L143.483,352.481L129.705,352.481L129.705,348.876C130.827,348.876 131.388,347.875 131.388,345.872L131.388,270.97C131.388,268.967 130.827,267.966 129.705,267.966L129.705,264.361L143.483,264.361L143.483,267.966C142.15,267.966 141.484,268.967 141.484,270.97L141.484,303.614C143.868,299.876 146.322,296.104 148.847,292.299C151.371,288.494 153.649,284.989 155.683,281.784C157.716,278.58 159.399,275.876 160.731,273.673C162.063,271.47 162.729,270.102 162.729,269.568C162.729,268.9 162.537,268.366 162.151,267.966C161.765,267.565 161.397,267.365 161.047,267.365L161.047,264.361L178.4,264.361L178.4,267.966C177.559,268.5 176.297,270.035 174.614,272.572L157.05,299.609L173.667,338.863C174.509,340.865 175.42,342.901 176.402,344.971C177.384,347.04 178.365,348.342 179.347,348.876L179.347,352.481L163.781,352.481L163.781,348.876C164.552,348.876 164.938,348.476 164.938,347.675C164.938,347.141 164.78,346.406 164.465,345.472C164.149,344.537 163.536,343.068 162.624,341.066L149.688,311.024L141.484,323.441L141.484,345.872Z" style="fill-rule:nonzero;stroke:black;stroke-width:0.89px;"/>
    </g>
    <g transform="matrix(1.27896,0,0,0.949095,0.352618,89.5079)">
        <path d="M203.221,267.966C201.679,267.966 200.907,268.967 200.907,270.97L200.907,316.832C200.907,323.241 202.134,328.382 204.588,332.254C207.043,336.125 210.794,338.061 215.842,338.061C220.89,338.061 224.642,336.125 227.096,332.254C229.55,328.382 230.777,323.241 230.777,316.832L230.777,270.97C230.777,268.967 229.9,267.966 228.147,267.966L228.147,264.361L242.766,264.361L242.766,267.966C241.224,267.966 240.453,268.967 240.453,270.97L240.453,321.639C240.453,325.778 239.962,329.75 238.98,333.555C237.999,337.361 236.509,340.732 234.51,343.669C232.512,346.607 229.953,348.91 226.833,350.579C223.712,352.248 220.049,353.082 215.842,353.082C211.635,353.082 207.972,352.248 204.851,350.579C201.731,348.91 199.172,346.607 197.174,343.669C195.175,340.732 193.685,337.361 192.704,333.555C191.722,329.75 191.231,325.778 191.231,321.639L191.231,270.97C191.231,269.902 191.021,269.134 190.6,268.667C190.18,268.199 189.373,267.966 188.181,267.966L188.181,264.361L203.221,264.361L203.221,267.966Z" style="fill-rule:nonzero;stroke:black;stroke-width:0.89px;"/>
    </g>
    <g transform="matrix(1.27896,0,0,0.949095,0.352618,89.5079)">
        <path d="M302.189,345.872C302.189,347.875 302.856,348.876 304.188,348.876L304.188,352.481L290.41,352.481L290.41,348.876C291.532,348.876 292.093,347.875 292.093,345.872L292.093,270.97C292.093,268.967 291.532,267.966 290.41,267.966L290.41,264.361L304.188,264.361L304.188,267.966C302.856,267.966 302.189,268.967 302.189,270.97L302.189,303.614C304.573,299.876 307.027,296.104 309.552,292.299C312.076,288.494 314.354,284.989 316.388,281.784C318.421,278.58 320.104,275.876 321.436,273.673C322.768,271.47 323.434,270.102 323.434,269.568C323.434,268.9 323.242,268.366 322.856,267.966C322.47,267.565 322.102,267.365 321.752,267.365L321.752,264.361L339.105,264.361L339.105,267.966C338.264,268.5 337.002,270.035 335.319,272.572L317.755,299.609L334.372,338.863C335.214,340.865 336.125,342.901 337.107,344.971C338.089,347.04 339.07,348.342 340.052,348.876L340.052,352.481L324.486,352.481L324.486,348.876C325.257,348.876 325.643,348.476 325.643,347.675C325.643,347.141 325.485,346.406 325.17,345.472C324.854,344.537 324.241,343.068 323.329,341.066L310.393,311.024L302.189,323.441L302.189,345.872Z" style="fill-rule:nonzero;stroke:black;stroke-width:0.89px;"/>
    </g>
    <g transform="matrix(1.27896,0,0,0.949095,0.352618,89.5079)">
        <path d="M350.569,348.876C351.691,348.876 352.462,348.643 352.883,348.175C353.304,347.708 353.514,346.94 353.514,345.872L353.514,270.97C353.514,269.902 353.304,269.134 352.883,268.667C352.462,268.199 351.691,267.966 350.569,267.966L350.569,264.361L366.556,264.361L366.556,267.966C364.592,267.966 363.611,268.967 363.611,270.97L363.611,345.872C363.611,347.875 364.592,348.876 366.556,348.876L366.556,352.481L350.569,352.481L350.569,348.876Z" style="fill-rule:nonzero;stroke:black;stroke-width:0.89px;"/>
    </g>
    <g transform="matrix(1.27896,0,0,0.949095,0.352618,89.5079)">
        <path d="M385.907,348.876C386.258,348.743 386.556,348.476 386.801,348.075C387.047,347.675 387.17,346.74 387.17,345.271L387.17,271.971C387.17,270.102 387.082,268.967 386.907,268.566C386.731,268.166 386.398,267.966 385.907,267.966L385.907,264.361L400.527,264.361L400.527,267.966C399.825,267.966 399.475,268.566 399.475,269.768C399.475,270.302 399.598,271.003 399.843,271.871C400.088,272.739 400.456,273.974 400.947,275.576L413.778,320.638L426.715,275.776C427.206,274.174 427.591,272.872 427.872,271.871C428.152,270.87 428.292,270.169 428.292,269.768C428.292,268.566 428.012,267.966 427.451,267.966L427.451,264.361L442.28,264.361L442.28,267.966C441.93,267.966 441.597,268.132 441.281,268.466C440.966,268.8 440.808,269.501 440.808,270.569L440.808,345.872C440.808,346.94 440.966,347.708 441.281,348.175C441.597,348.643 441.93,348.876 442.28,348.876L442.28,352.481L430.08,352.481L430.08,348.876C431.553,348.876 432.184,347.875 431.973,345.872L431.973,289.595L431.763,289.595L413.884,352.481L413.042,352.481L396.109,289.595L396.214,289.595L396.004,289.595L396.004,345.872C396.004,347.875 396.6,348.876 397.792,348.876L397.792,352.481L385.907,352.481L385.907,348.876Z" style="fill-rule:nonzero;stroke:black;stroke-width:0.89px;"/>
    </g>
    <g transform="matrix(1.27896,0,0,0.949095,0.352618,89.5079)">
        <path d="M474.884,267.966C473.342,267.966 472.57,268.967 472.57,270.97L472.57,316.832C472.57,323.241 473.797,328.382 476.251,332.254C478.705,336.125 482.457,338.061 487.505,338.061C492.553,338.061 496.305,336.125 498.759,332.254C501.213,328.382 502.44,323.241 502.44,316.832L502.44,270.97C502.44,268.967 501.563,267.966 499.81,267.966L499.81,264.361L514.429,264.361L514.429,267.966C512.887,267.966 512.116,268.967 512.116,270.97L512.116,321.639C512.116,325.778 511.625,329.75 510.643,333.555C509.662,337.361 508.172,340.732 506.173,343.669C504.175,346.607 501.616,348.91 498.496,350.579C495.375,352.248 491.712,353.082 487.505,353.082C483.298,353.082 479.635,352.248 476.514,350.579C473.394,348.91 470.835,346.607 468.837,343.669C466.838,340.732 465.348,337.361 464.367,333.555C463.385,329.75 462.894,325.778 462.894,321.639L462.894,270.97C462.894,269.902 462.684,269.134 462.263,268.667C461.843,268.199 461.036,267.966 459.844,267.966L459.844,264.361L474.884,264.361L474.884,267.966Z" style="fill-rule:nonzero;stroke:black;stroke-width:0.89px;"/>
    </g>
    <g transform="matrix(1.27896,0,0,0.949095,0.352618,89.5079)">
        <path d="M559.233,302.413C566.105,302.413 569.54,298.274 569.54,289.996C569.54,286.658 568.716,284.021 567.069,282.085C565.421,280.149 562.809,279.181 559.233,279.181L542.616,279.181L542.616,302.413L559.233,302.413ZM559.444,264.361C565.684,264.361 570.557,266.33 574.063,270.269C577.569,274.207 579.321,280.917 579.321,290.396C579.321,294.001 578.971,297.206 578.27,300.009C577.569,302.813 576.639,305.25 575.483,307.319C574.326,309.389 573.046,311.058 571.644,312.326C570.241,313.595 568.804,314.563 567.332,315.23L577.639,343.869C578.2,345.338 578.813,346.44 579.479,347.174C580.145,347.908 580.864,348.476 581.635,348.876L581.635,352.481L565.544,352.481L565.544,348.876C566.455,348.876 566.911,348.275 566.911,347.074C566.911,345.739 566.385,343.669 565.333,340.865L557.025,317.233L542.406,317.233L542.406,345.872C542.406,346.94 542.633,347.708 543.089,348.175C543.545,348.643 543.983,348.876 544.404,348.876L544.404,352.481L530.416,352.481L530.416,348.876C531.678,348.876 532.309,347.875 532.309,345.872L532.309,270.97C532.309,268.967 531.678,267.966 530.416,267.966L530.416,264.361L559.444,264.361Z" style="fill-rule:nonzero;stroke:black;stroke-width:0.89px;"/>
    </g>
    <g transform="matrix(1.27896,0,0,0.949095,0.352618,89.5079)">
        <path d="M623.179,315.631L614.66,281.985L607.192,315.631L623.179,315.631ZM588.051,348.876C588.892,348.609 589.576,347.842 590.102,346.573C590.628,345.305 591.031,344.136 591.311,343.068L606.982,277.979C607.403,276.11 607.736,274.608 607.981,273.473C608.227,272.338 608.349,271.237 608.349,270.169C608.349,269.367 608.262,268.867 608.086,268.667C607.911,268.466 607.718,268.233 607.508,267.966L607.508,264.361L623.389,264.361L623.389,267.966C623.179,268.233 622.951,268.433 622.705,268.566C622.46,268.7 622.337,269.234 622.337,270.169C622.337,270.97 622.495,271.938 622.811,273.073C623.126,274.207 623.459,275.509 623.81,276.978L640.848,345.071C641.198,346.273 641.584,347.141 642.005,347.675C642.425,348.209 642.881,348.609 643.372,348.876L643.372,352.481L628.437,352.481L628.437,349.477C628.788,349.477 629.156,349.277 629.542,348.876C629.927,348.476 630.12,347.741 630.12,346.673C630.12,345.872 630.05,345.138 629.91,344.47C629.77,343.803 629.594,342.935 629.384,341.867L626.544,330.451L604.037,330.451L601.092,341.266C600.812,342.334 600.584,343.302 600.409,344.17C600.233,345.038 600.146,345.805 600.146,346.473C600.146,347.541 600.321,348.209 600.672,348.476C601.022,348.743 601.513,348.876 602.144,348.876L602.144,352.481L588.051,352.481L588.051,348.876Z" style="fill-rule:nonzero;stroke:black;stroke-width:0.89px;"/>
    </g>
    <g transform="matrix(0.201068,0,0,0.201068,499.002,-19.8309)">
        <g transform="matrix(1.43784,0,0,1.43784,1031.88,505.933)">
            <g>
                <g transform="matrix(1,0,0,1,-312.5,-312)">
                    <g transform="matrix(0.1,0,0,-0.1,0,624)">
                        <g>
                            <path d="M4785,5541C4782,5531 4782,5516 4786,5507C4797,5479 4688,5338 4597,5263C4552,5226 4512,5191 4508,5186C4495,5167 4512,5159 4529,5174C4539,5183 4551,5190 4557,5190C4563,5190 4585,5208 4606,5230C4627,5252 4651,5270 4660,5270C4669,5270 4681,5275 4688,5282C4703,5297 4717,5284 4722,5250C4727,5213 4771,5211 4816,5245C4856,5275 4863,5306 4828,5295C4761,5275 4758,5275 4766,5306C4770,5322 4777,5340 4782,5347C4796,5365 4828,5520 4823,5541C4816,5565 4793,5565 4785,5541Z" style="fill-rule:nonzero;stroke:black;stroke-width:10px;"/>
                            <path d="M5144,5535C5130,5521 5116,5510 5112,5510C5099,5509 5060,5472 5060,5460C5060,5453 5054,5450 5046,5453C5038,5456 5029,5453 5027,5445C5024,5438 4992,5413 4956,5389C4889,5345 4882,5336 4901,5325C4920,5313 4961,5330 4972,5355C4978,5369 4989,5380 4997,5380C5004,5380 5010,5385 5010,5390C5010,5396 5015,5400 5021,5400C5027,5400 5055,5418 5082,5440C5136,5483 5167,5493 5155,5463C5151,5453 5143,5424 5137,5398C5129,5359 5122,5348 5094,5335C5075,5326 5060,5313 5060,5306C5060,5298 5054,5287 5046,5280C5038,5274 5030,5252 5028,5232C5025,5200 5021,5195 4996,5192C4974,5189 4965,5180 4952,5149C4944,5128 4933,5110 4928,5110C4924,5110 4920,5101 4920,5091C4920,5081 4913,5069 4904,5066C4881,5057 4874,5066 4890,5085C4908,5107 4894,5149 4864,5162C4842,5172 4836,5171 4824,5155C4811,5138 4809,5138 4792,5153C4782,5162 4766,5170 4756,5170C4734,5170 4639,5139 4625,5128C4620,5123 4606,5113 4595,5105C4565,5084 4584,5076 4632,5089C4730,5117 4741,5102 4672,5034C4617,4979 4603,4952 4625,4944C4641,4937 4705,4973 4713,4993C4720,5013 4798,5063 4809,5055C4815,5052 4820,5033 4820,5014C4820,4982 4832,4969 4845,4989C4848,4994 4865,5002 4882,5006C4900,5009 4920,5019 4926,5027C4935,5041 4940,5040 4969,5026C4986,5017 5004,5012 5009,5015C5031,5028 5060,5104 5060,5149C5060,5180 5065,5202 5075,5210C5083,5217 5090,5228 5090,5234C5090,5241 5101,5257 5115,5270C5129,5283 5140,5303 5140,5316C5140,5328 5147,5340 5155,5344C5163,5347 5170,5360 5170,5373C5170,5386 5175,5401 5181,5407C5187,5413 5195,5450 5198,5489C5202,5551 5201,5560 5186,5560C5177,5560 5158,5549 5144,5535Z" style="fill-rule:nonzero;stroke:black;stroke-width:10px;"/>
                            <path d="M4534,5415C4530,5407 4517,5400 4504,5400C4479,5400 4422,5366 4407,5342C4403,5336 4382,5321 4362,5311C4342,5300 4315,5280 4303,5266C4290,5252 4272,5240 4262,5240C4252,5240 4233,5229 4220,5215C4207,5201 4191,5190 4183,5190C4176,5190 4146,5174 4118,5154C4090,5134 4046,5108 4021,5097C3997,5087 3947,5057 3911,5033C3875,5008 3823,4978 3795,4965C3768,4953 3736,4933 3726,4921C3715,4910 3699,4900 3690,4900C3681,4900 3665,4893 3654,4885C3644,4877 3630,4870 3623,4870C3616,4870 3601,4860 3588,4847C3575,4835 3534,4811 3495,4795C3457,4779 3415,4755 3401,4742C3388,4730 3365,4717 3351,4713C3337,4710 3316,4699 3305,4689C3294,4679 3258,4659 3225,4645C3192,4631 3154,4612 3140,4604C3126,4596 3092,4578 3065,4565C3037,4552 3007,4533 2997,4522C2969,4491 2906,4330 2918,4318C2934,4302 2948,4317 2964,4370C2985,4441 3008,4472 3030,4460C3049,4450 3060,4460 3094,4513C3104,4529 3133,4551 3158,4562C3184,4574 3219,4593 3235,4606C3252,4619 3326,4659 3400,4696C3474,4733 3555,4777 3580,4795C3640,4837 3716,4880 3730,4880C3737,4880 3759,4893 3779,4909C3799,4924 3832,4943 3852,4949C3872,4956 3894,4968 3901,4976C3908,4984 3936,5002 3964,5015C3992,5028 4030,5050 4049,5064C4068,5078 4087,5090 4092,5090C4101,5090 4222,5169 4263,5202C4319,5246 4506,5377 4541,5395C4561,5405 4567,5430 4550,5430C4544,5430 4537,5423 4534,5415Z" style="fill-rule:nonzero;stroke:black;stroke-width:10px;"/>
                            <path d="M4928,4951C4912,4937 4900,4919 4900,4912C4900,4906 4893,4900 4885,4900C4877,4900 4870,4896 4870,4892C4870,4880 4814,4850 4791,4850C4780,4850 4767,4843 4762,4834C4754,4819 4752,4819 4747,4834C4735,4865 4694,4853 4664,4808C4634,4762 4605,4732 4546,4687C4526,4672 4510,4655 4510,4650C4510,4631 4545,4640 4570,4665C4584,4679 4606,4701 4620,4715C4638,4733 4655,4740 4684,4740C4712,4740 4729,4747 4746,4765C4774,4795 4780,4796 4814,4769C4835,4753 4838,4745 4830,4730C4817,4706 4817,4680 4830,4680C4836,4680 4845,4690 4850,4703C4856,4715 4874,4746 4890,4772C4906,4798 4924,4837 4930,4859C4942,4906 4956,4919 5001,4922L5035,4925L5032,4884C5030,4857 5034,4839 5044,4831C5056,4821 5061,4825 5070,4857C5090,4922 5082,4943 5033,4952C5010,4956 4983,4963 4973,4968C4959,4975 4948,4971 4928,4951Z" style="fill-rule:nonzero;stroke:black;stroke-width:10px;"/>
                            <path d="M4302,4808C4307,4793 4339,4790 4343,4805C4344,4811 4334,4817 4321,4818C4305,4821 4299,4817 4302,4808Z" style="fill-rule:nonzero;stroke:black;stroke-width:10px;"/>
                            <path d="M4959,4737C4931,4713 4895,4652 4904,4643C4913,4634 5000,4726 5000,4744C5000,4765 4990,4764 4959,4737Z" style="fill-rule:nonzero;stroke:black;stroke-width:10px;"/>
                            <path d="M3905,4681C3852,4674 3760,4635 3760,4619C3760,4596 3794,4600 3845,4629C3875,4646 3910,4660 3922,4660C3958,4660 3990,4671 3984,4681C3981,4686 3973,4689 3967,4689C3960,4688 3933,4684 3905,4681Z" style="fill-rule:nonzero;stroke:black;stroke-width:10px;"/>
                            <path d="M4718,4550C4676,4507 4632,4469 4622,4466C4599,4458 4554,4412 4562,4404C4565,4401 4587,4408 4611,4419C4634,4431 4655,4440 4657,4440C4668,4440 4657,4407 4640,4390C4620,4370 4612,4330 4629,4330C4633,4330 4649,4339 4662,4350C4676,4360 4690,4367 4693,4363C4701,4356 4750,4401 4750,4416C4750,4433 4798,4473 4809,4465C4815,4462 4820,4448 4820,4436C4820,4423 4826,4407 4834,4401C4845,4392 4851,4397 4864,4430C4885,4483 4884,4489 4856,4500C4834,4508 4831,4516 4828,4567C4826,4609 4821,4625 4810,4627C4802,4628 4760,4593 4718,4550Z" style="fill-rule:nonzero;stroke:black;stroke-width:10px;"/>
                            <path d="M3639,4572C3626,4562 3594,4546 3569,4537C3523,4519 3500,4491 3500,4450C3500,4436 3493,4430 3477,4430C3450,4430 3420,4402 3420,4376C3420,4357 3383,4321 3363,4320C3348,4320 3336,4258 3344,4225C3353,4188 3370,4204 3370,4249C3370,4278 3375,4290 3393,4299C3405,4305 3426,4317 3440,4325C3463,4338 3466,4337 3477,4317C3496,4284 3493,4274 3460,4260C3430,4248 3418,4220 3443,4220C3472,4220 3532,4243 3570,4267C3605,4290 3610,4298 3605,4321C3600,4343 3604,4349 3630,4360C3658,4372 3660,4375 3646,4388C3636,4399 3627,4400 3618,4393C3594,4375 3511,4348 3489,4352C3468,4355 3469,4358 3506,4402C3527,4428 3553,4460 3562,4473C3571,4486 3608,4512 3645,4530C3681,4548 3709,4568 3707,4574C3701,4593 3665,4592 3639,4572ZM3550,4310C3550,4305 3545,4300 3539,4300C3534,4300 3532,4305 3535,4310C3538,4316 3543,4320 3546,4320C3548,4320 3550,4316 3550,4310Z" style="fill-rule:nonzero;stroke:black;stroke-width:10px;"/>
                            <path d="M4370,4555C4346,4529 4348,4524 4378,4539C4387,4544 4403,4551 4413,4554C4423,4557 4428,4564 4425,4570C4415,4587 4395,4581 4370,4555Z" style="fill-rule:nonzero;stroke:black;stroke-width:10px;"/>
                            <path d="M1570,4523C1562,4520 1527,4505 1492,4489C1458,4473 1427,4460 1422,4460C1401,4459 1277,4280 1247,4206C1236,4178 1219,4146 1209,4135C1199,4124 1188,4103 1185,4087C1181,4072 1158,4043 1133,4023C1096,3992 1089,3982 1092,3956L1095,3925L1180,3922C1226,3920 1274,3923 1285,3929C1326,3949 1403,3949 1450,3930C1475,3919 1515,3906 1540,3900C1590,3888 1685,3843 1709,3820C1766,3764 1800,3704 1816,3631C1825,3589 1837,3550 1842,3543C1847,3537 1859,3478 1869,3411C1878,3345 1890,3287 1893,3283C1921,3255 1927,3362 1902,3460C1896,3485 1885,3541 1876,3586C1867,3634 1845,3702 1821,3751C1789,3820 1774,3840 1743,3857C1722,3869 1689,3895 1671,3914C1652,3934 1628,3950 1618,3950C1609,3950 1585,3959 1565,3970C1542,3983 1520,3988 1504,3984C1483,3979 1478,3982 1469,4010L1457,4042L1438,4011C1423,3987 1414,3982 1401,3989C1328,4028 1286,4183 1324,4273C1343,4320 1469,4446 1505,4454C1522,4458 1553,4465 1575,4470C1637,4484 1722,4482 1807,4463L1885,4446L2027,4306C2176,4158 2206,4114 2247,3975C2255,3948 2268,3918 2276,3909C2284,3901 2299,3867 2310,3835C2321,3803 2336,3767 2344,3756C2351,3744 2367,3705 2379,3669C2408,3582 2420,3572 2497,3571C2562,3571 2574,3578 2585,3623C2591,3645 2589,3650 2573,3650C2563,3650 2537,3641 2515,3630C2468,3606 2455,3614 2447,3671C2444,3698 2431,3723 2412,3744C2396,3761 2379,3786 2375,3800C2363,3841 2331,3908 2320,3915C2315,3918 2310,3928 2310,3937C2310,3953 2302,3972 2250,4080C2164,4261 2011,4430 1885,4485C1863,4494 1830,4508 1812,4516C1780,4530 1604,4535 1570,4523ZM1278,4084C1276,4053 1269,4042 1248,4032C1232,4025 1220,4015 1220,4009C1220,4004 1216,4000 1210,4000C1205,4000 1200,4011 1200,4025C1200,4039 1204,4050 1209,4050C1214,4050 1223,4065 1230,4083C1258,4152 1284,4153 1278,4084Z" style="fill-rule:nonzero;stroke:black;stroke-width:10px;"/>
                            <path d="M4318,4513C4325,4510 4334,4511 4337,4514C4341,4517 4335,4520 4324,4519C4313,4519 4310,4516 4318,4513Z" style="fill-rule:nonzero;stroke:black;stroke-width:10px;"/>
                            <path d="M4431,4341C4424,4336 4419,4327 4421,4321C4424,4315 4430,4314 4439,4319C4446,4324 4451,4333 4449,4339C4446,4345 4440,4346 4431,4341Z" style="fill-rule:nonzero;stroke:black;stroke-width:10px;"/>
                            <path d="M4660,4313C4646,4294 4641,4278 4645,4259C4650,4238 4644,4225 4616,4195C4596,4174 4580,4151 4580,4144C4580,4129 4549,4110 4526,4110C4502,4110 4507,4134 4536,4169C4588,4231 4526,4279 4467,4222C4449,4206 4420,4185 4402,4176C4384,4166 4371,4153 4373,4147C4379,4128 4413,4126 4426,4145C4434,4155 4446,4160 4455,4156C4470,4151 4469,4147 4450,4120C4438,4104 4425,4090 4421,4090C4417,4090 4400,4077 4384,4061C4367,4044 4341,4029 4326,4026C4311,4023 4282,4008 4263,3993C4244,3978 4220,3961 4209,3955C4182,3941 4185,3928 4214,3936C4252,3945 4265,3931 4239,3909C4227,3899 4211,3890 4204,3890C4197,3890 4185,3882 4178,3871C4171,3861 4138,3845 4105,3835C3999,3804 3983,3791 4023,3766C4035,3758 4044,3760 4058,3773C4068,3782 4087,3790 4099,3790C4111,3790 4133,3801 4148,3815C4163,3829 4181,3840 4188,3840C4195,3840 4214,3854 4230,3871C4245,3888 4263,3900 4268,3896C4273,3893 4294,3908 4314,3930C4334,3952 4354,3970 4360,3970C4365,3970 4370,3974 4370,3978C4370,3993 4462,4051 4477,4046C4489,4041 4490,4037 4480,4025C4474,4017 4471,4006 4475,4000C4483,3988 4520,3986 4520,3999C4520,4015 4611,4130 4624,4130C4630,4130 4653,4153 4675,4181C4697,4210 4724,4240 4734,4249C4777,4285 4790,4301 4790,4315C4790,4323 4784,4330 4776,4330C4769,4330 4757,4323 4750,4315C4733,4294 4720,4296 4720,4320C4720,4349 4686,4345 4660,4313Z" style="fill-rule:nonzero;stroke:black;stroke-width:10px;"/>
                            <path d="M1506,4298C1470,4247 1497,4180 1554,4180C1599,4180 1620,4197 1620,4234C1620,4306 1542,4349 1506,4298Z" style="fill-rule:nonzero;stroke:black;stroke-width:10px;"/>
                            <path d="M4080,4180C4026,4165 4009,4157 4013,4146C4019,4129 4072,4137 4094,4159C4118,4183 4114,4189 4080,4180Z" style="fill-rule:nonzero;stroke:black;stroke-width:10px;"/>
                            <path d="M3342,4128C3330,4122 3317,4106 3314,4093C3310,4081 3304,4070 3299,4070C3294,4070 3290,4061 3290,4050C3290,4039 3295,4030 3300,4030C3321,4030 3309,3982 3280,3954C3251,3925 3241,3900 3259,3900C3265,3900 3272,3905 3275,3910C3278,3916 3296,3920 3314,3920C3332,3920 3355,3926 3365,3934C3382,3946 3383,3952 3372,3988C3365,4010 3353,4033 3345,4040C3320,4061 3328,4068 3389,4075C3433,4080 3454,4088 3471,4106C3487,4123 3489,4130 3479,4130C3471,4131 3443,4133 3415,4135C3388,4137 3355,4134 3342,4128Z" style="fill-rule:nonzero;stroke:black;stroke-width:10px;"/>
                            <path d="M4620,4000C4590,3940 4570,3914 4541,3896C4520,3882 4500,3866 4498,3859C4495,3850 4489,3850 4472,3859C4449,3871 4443,3894 4460,3905C4466,3908 4470,3920 4470,3931C4470,3966 4436,3952 4374,3891C4314,3834 4299,3823 4210,3779C4185,3767 4163,3754 4160,3750C4157,3746 4146,3741 4135,3739C4120,3736 4114,3726 4112,3697C4109,3665 4112,3660 4131,3660C4143,3660 4186,3686 4227,3718C4299,3773 4356,3809 4373,3810C4378,3810 4379,3797 4375,3781C4363,3725 4392,3734 4483,3815C4507,3836 4554,3860 4572,3860C4582,3860 4580,3842 4564,3778C4556,3743 4569,3743 4593,3776C4620,3813 4626,3863 4605,3884C4590,3899 4589,3905 4600,3926C4608,3939 4617,3950 4621,3950C4625,3950 4643,3968 4660,3990C4684,4020 4691,4037 4686,4055C4682,4069 4675,4080 4670,4080C4665,4080 4642,4044 4620,4000Z" style="fill-rule:nonzero;stroke:black;stroke-width:10px;"/>
                            <path d="M2737,3913C2707,3862 2685,3822 2663,3780C2653,3761 2635,3734 2623,3720C2600,3696 2592,3660 2608,3660C2624,3660 2650,3696 2650,3717C2650,3729 2656,3740 2664,3743C2672,3746 2695,3775 2715,3807C2736,3839 2761,3877 2771,3892C2782,3907 2790,3926 2790,3935C2790,3963 2760,3950 2737,3913Z" style="fill-rule:nonzero;stroke:black;stroke-width:10px;"/>
                            <path d="M3236,3793C3226,3769 3244,3756 3269,3769C3281,3776 3287,3786 3284,3795C3276,3815 3244,3814 3236,3793Z" style="fill-rule:nonzero;stroke:black;stroke-width:10px;"/>
                            <path d="M3139,3733C3138,3729 3139,3714 3140,3701C3142,3673 3126,3660 3089,3660C3054,3660 3033,3636 3050,3615C3057,3607 3071,3600 3081,3600C3096,3600 3100,3593 3100,3567C3100,3512 3074,3497 2990,3502C2913,3506 2904,3498 2945,3460C2964,3442 2976,3439 3002,3444C3082,3459 3130,3511 3130,3582C3130,3603 3139,3624 3156,3641C3191,3677 3195,3734 3163,3738C3150,3740 3140,3738 3139,3733Z" style="fill-rule:nonzero;stroke:black;stroke-width:10px;"/>
                            <path d="M3785,3618C3769,3612 3749,3606 3743,3604C3725,3599 3727,3581 3745,3574C3763,3567 3900,3610 3900,3622C3900,3633 3822,3630 3785,3618Z" style="fill-rule:nonzero;stroke:black;stroke-width:10px;"/>
                            <path d="M4357,3605C4326,3578 4290,3572 4290,3594C4290,3601 4279,3610 4265,3612C4239,3617 4222,3605 4165,3539C4137,3506 4125,3501 3995,3470C3833,3432 3802,3415 3905,3423C3989,3430 4165,3471 4182,3488C4197,3503 4240,3504 4240,3490C4240,3484 4233,3477 4225,3474C4205,3466 4206,3440 4225,3440C4241,3440 4290,3486 4290,3501C4290,3521 4323,3540 4346,3534C4365,3529 4375,3533 4386,3549C4403,3573 4435,3578 4426,3555C4418,3534 4454,3516 4470,3534C4484,3551 4462,3593 4443,3586C4437,3583 4430,3591 4428,3603C4424,3634 4391,3635 4357,3605Z" style="fill-rule:nonzero;stroke:black;stroke-width:10px;"/>
                            <path d="M4322,3428C4304,3410 4307,3373 4327,3365C4347,3358 4405,3414 4395,3430C4386,3444 4336,3442 4322,3428Z" style="fill-rule:nonzero;stroke:black;stroke-width:10px;"/>
                            <path d="M3530,3390C3511,3378 3523,3368 3551,3372C3570,3374 3571,3377 3559,3387C3550,3394 3539,3396 3530,3390Z" style="fill-rule:nonzero;stroke:black;stroke-width:10px;"/>
                            <path d="M4068,3292C4055,3277 4038,3261 4030,3257C4022,3253 4008,3246 4000,3242C3948,3212 3932,3210 3753,3210C3610,3210 3554,3214 3521,3226C3497,3234 3471,3239 3463,3236C3446,3229 3446,3194 3464,3187C3472,3184 3588,3181 3723,3181C3868,3181 3979,3176 3995,3170C4051,3149 4094,3188 4104,3268C4112,3327 4103,3333 4068,3292Z" style="fill-rule:nonzero;stroke:black;stroke-width:10px;"/>
                            <path d="M4206,3278C4199,3265 4189,3238 4186,3218C4182,3197 4168,3168 4155,3154C4141,3139 4130,3121 4130,3113C4130,3095 4074,3013 4058,3008C4052,3006 4049,2997 4053,2988C4058,2974 4064,2975 4106,2996C4154,3020 4180,3016 4180,2985C4180,2971 4205,2958 4214,2967C4217,2971 4220,2990 4220,3011C4220,3042 4216,3049 4195,3054C4173,3060 4172,3063 4181,3088C4186,3103 4211,3133 4235,3155C4269,3186 4281,3205 4286,3237C4291,3272 4289,3280 4272,3289C4241,3306 4222,3302 4206,3278Z" style="fill-rule:nonzero;stroke:black;stroke-width:10px;"/>
                            <path d="M1920,3119C1919,3095 1917,3034 1914,2984C1910,2915 1913,2880 1924,2846C1933,2820 1940,2780 1940,2757C1940,2733 1951,2692 1965,2662C1979,2632 1990,2599 1990,2589C1990,2578 1996,2557 2004,2542C2011,2527 2023,2488 2030,2455C2037,2422 2048,2388 2055,2380C2062,2372 2070,2356 2073,2345C2084,2306 2126,2204 2145,2170C2170,2127 2272,2020 2290,2020C2305,2020 2279,2063 2243,2099C2229,2112 2214,2136 2208,2151C2203,2167 2194,2180 2189,2180C2184,2180 2180,2194 2180,2210C2180,2227 2184,2240 2190,2240C2195,2240 2206,2227 2215,2210C2237,2167 2260,2171 2260,2218C2260,2296 2228,2356 2205,2320C2194,2302 2181,2309 2165,2340C2156,2357 2138,2376 2126,2382C2101,2393 2088,2423 2030,2610C2013,2662 1992,2730 1983,2760C1970,2800 1966,2844 1967,2918C1968,2993 1963,3039 1950,3087C1926,3169 1920,3175 1920,3119Z" style="fill-rule:nonzero;stroke:black;stroke-width:10px;"/>
                            <path d="M3905,3074L3889,3049L3922,3052C3947,3054 3956,3060 3958,3078C3963,3109 3927,3107 3905,3074Z" style="fill-rule:nonzero;stroke:black;stroke-width:10px;"/>
                            <path d="M3457,3044C3454,3041 3456,3029 3463,3019C3474,3002 3488,3000 3607,3000C3689,3000 3740,3004 3740,3010C3740,3021 3739,3021 3629,3025C3588,3026 3544,3032 3533,3039C3510,3051 3467,3054 3457,3044Z" style="fill-rule:nonzero;stroke:black;stroke-width:10px;"/>
                            <path d="M3957,2951C3948,2935 3940,2905 3940,2883C3939,2825 3900,2790 3835,2790C3807,2790 3798,2785 3791,2768C3786,2755 3773,2736 3761,2726C3750,2715 3740,2695 3740,2681C3740,2635 3727,2626 3657,2626C3597,2625 3591,2623 3566,2593C3528,2548 3484,2541 3423,2570C3200,2675 3151,2701 3122,2734C3079,2783 3051,2788 3011,2754C2981,2729 2978,2728 2960,2745C2941,2762 2920,2758 2920,2738C2920,2733 2936,2710 2954,2688C2994,2642 3001,2609 2982,2560C2971,2534 2971,2521 2979,2508C2985,2498 2990,2477 2990,2461C2990,2429 3045,2310 3060,2310C3066,2310 3070,2304 3070,2298C3070,2291 3084,2256 3100,2220C3118,2179 3125,2151 3119,2146C3103,2129 3109,2102 3140,2053C3176,1993 3255,1925 3298,1915C3323,1910 3330,1903 3330,1885C3330,1871 3321,1856 3310,1850C3295,1842 3290,1829 3290,1800C3290,1756 3310,1730 3345,1730C3375,1730 3397,1699 3406,1642C3410,1615 3420,1595 3431,1589C3458,1575 3464,1597 3452,1657C3441,1708 3443,1720 3465,1720C3484,1720 3570,1622 3570,1600C3570,1571 3620,1519 3644,1522C3662,1525 3665,1531 3663,1566C3662,1603 3654,1615 3587,1681C3546,1722 3496,1769 3475,1787C3444,1814 3439,1824 3444,1845C3449,1866 3443,1878 3404,1918C3338,1984 3240,2099 3240,2109C3240,2114 3215,2152 3185,2195C3125,2278 3116,2307 3153,2295C3165,2291 3189,2286 3205,2283C3222,2280 3242,2272 3250,2265C3282,2237 3368,2179 3428,2144C3484,2112 3496,2099 3545,2016C3607,1912 3612,1890 3575,1890C3537,1890 3534,1865 3566,1819C3582,1796 3601,1765 3609,1749C3627,1713 3660,1710 3660,1744C3660,1757 3653,1770 3645,1774C3628,1780 3625,1835 3639,1872C3648,1896 3631,1990 3618,1990C3613,1990 3610,1998 3610,2009C3610,2019 3603,2033 3595,2040C3587,2047 3580,2057 3580,2064C3580,2078 3451,2200 3435,2200C3429,2200 3415,2209 3404,2221C3386,2242 3352,2262 3280,2296C3261,2305 3242,2316 3239,2322C3236,2327 3218,2339 3200,2348C3182,2357 3160,2376 3152,2388C3137,2411 3137,2412 3161,2408C3174,2407 3189,2395 3195,2383C3200,2370 3210,2360 3217,2360C3224,2360 3230,2356 3230,2350C3230,2345 3239,2340 3251,2340C3262,2340 3290,2332 3313,2321C3336,2311 3392,2297 3438,2291C3483,2284 3535,2273 3553,2266C3583,2253 3592,2254 3630,2267C3650,2274 3614,2289 3535,2306C3417,2332 3331,2364 3260,2409C3219,2434 3215,2440 3216,2477C3217,2549 3222,2553 3295,2547C3331,2545 3366,2538 3373,2532C3390,2518 3459,2506 3498,2509C3517,2510 3544,2507 3559,2500C3581,2492 3592,2492 3616,2505C3632,2513 3651,2520 3658,2520C3664,2520 3686,2538 3706,2560C3743,2601 3767,2609 3787,2589C3802,2574 3820,2586 3820,2611C3820,2624 3813,2630 3796,2630C3770,2630 3747,2671 3769,2678C3775,2680 3780,2691 3780,2703C3780,2742 3792,2751 3833,2739C3865,2731 3874,2732 3910,2755C3940,2774 3950,2787 3950,2806C3950,2820 3964,2857 3982,2889C4013,2945 4015,2980 3987,2980C3980,2980 3967,2967 3957,2951ZM3063,2516C3080,2491 3075,2447 3056,2453C3038,2459 3016,2505 3023,2523C3032,2546 3045,2544 3063,2516Z" style="fill-rule:nonzero;stroke:black;stroke-width:10px;"/>
                            <path d="M4073,2857C4049,2846 4042,2816 4061,2805C4067,2801 4080,2807 4091,2819C4123,2853 4112,2876 4073,2857Z" style="fill-rule:nonzero;stroke:black;stroke-width:10px;"/>
                            <path d="M3932,2728C3915,2711 3916,2649 3934,2656C3942,2659 3957,2648 3970,2631C3995,2594 4001,2593 4018,2621C4029,2639 4029,2645 4013,2662C4004,2673 3995,2693 3994,2708C3994,2729 3988,2736 3969,2738C3956,2740 3939,2735 3932,2728Z" style="fill-rule:nonzero;stroke:black;stroke-width:10px;"/>
                            <path d="M3870,2608C3870,2595 3877,2576 3885,2566C3895,2553 3900,2523 3900,2481L3900,2416L3921,2437C3936,2451 3944,2475 3948,2508C3952,2555 3950,2561 3918,2594C3877,2636 3870,2638 3870,2608Z" style="fill-rule:nonzero;stroke:black;stroke-width:10px;"/>
                            <path d="M3548,2445C3510,2409 3465,2399 3443,2421C3434,2430 3402,2439 3293,2467C3276,2471 3270,2468 3270,2456C3270,2447 3278,2440 3289,2440C3300,2440 3312,2436 3315,2430C3318,2425 3332,2420 3344,2420C3357,2420 3383,2414 3401,2406C3423,2398 3465,2393 3518,2395C3581,2397 3600,2394 3600,2384C3600,2376 3618,2359 3639,2346C3661,2332 3685,2311 3693,2300C3714,2269 3784,2275 3788,2308C3791,2327 3787,2330 3761,2330C3725,2330 3720,2352 3747,2382C3761,2398 3762,2403 3750,2410C3742,2415 3728,2415 3718,2409C3704,2401 3698,2404 3689,2422C3678,2447 3628,2480 3602,2480C3593,2480 3568,2464 3548,2445Z" style="fill-rule:nonzero;stroke:black;stroke-width:10px;"/>
                            <path d="M2287,2293C2274,2281 2280,2232 2295,2226C2303,2223 2310,2214 2310,2207C2310,2199 2319,2185 2330,2175C2346,2160 2350,2160 2355,2172C2358,2180 2354,2200 2345,2216C2337,2232 2330,2252 2330,2261C2330,2287 2302,2308 2287,2293Z" style="fill-rule:nonzero;stroke:black;stroke-width:10px;"/>
                            <path d="M2294,1988C2285,1970 2266,1947 2253,1937C2240,1927 2212,1892 2191,1860C2169,1828 2129,1780 2101,1754C2049,1705 2035,1670 2068,1670C2088,1670 2130,1705 2130,1720C2130,1726 2142,1743 2158,1760C2191,1796 2260,1875 2293,1914C2316,1943 2318,1943 2365,1931C2405,1921 2416,1921 2428,1933C2457,1962 2391,2020 2329,2020C2318,2020 2303,2006 2294,1988Z" style="fill-rule:nonzero;stroke:black;stroke-width:10px;"/>
                            <path d="M2497,1914C2493,1910 2490,1894 2490,1879C2490,1864 2486,1848 2480,1845C2475,1842 2470,1828 2470,1815C2470,1778 2455,1777 2420,1811C2394,1837 2384,1841 2358,1836C2341,1833 2318,1830 2305,1830C2292,1830 2278,1820 2270,1805C2263,1791 2251,1780 2243,1780C2233,1780 2230,1755 2230,1670C2230,1606 2226,1560 2220,1560C2203,1560 2170,1604 2158,1642C2152,1663 2143,1680 2139,1680C2124,1680 2100,1621 2100,1583C2100,1562 2095,1538 2090,1530C2082,1517 2079,1517 2063,1532C2048,1547 2048,1554 2058,1584C2070,1616 2066,1650 2050,1650C2039,1650 2022,1602 2015,1547C2009,1504 2011,1497 2039,1470C2078,1431 2117,1429 2126,1468C2137,1511 2149,1521 2185,1514C2233,1505 2252,1541 2261,1658C2265,1708 2273,1756 2279,1764C2286,1772 2307,1781 2326,1785C2399,1798 2428,1746 2400,1650C2395,1631 2393,1607 2396,1598C2404,1570 2448,1576 2481,1609C2507,1635 2510,1646 2510,1698C2510,1740 2515,1761 2526,1771C2539,1782 2543,1781 2552,1766C2599,1682 2808,1540 2885,1540C2918,1540 3030,1511 3064,1493C3098,1475 3117,1488 3101,1517C3088,1543 3025,1566 2923,1584C2873,1593 2824,1609 2795,1626L2748,1653L2771,1672C2788,1685 2804,1689 2828,1685C2873,1677 2886,1687 2862,1714C2851,1725 2839,1745 2835,1758C2827,1786 2815,1786 2786,1757L2763,1734L2752,1762C2745,1782 2735,1790 2717,1790C2691,1790 2676,1814 2665,1874C2656,1918 2634,1921 2625,1880C2618,1847 2626,1810 2641,1810C2646,1810 2650,1800 2650,1788C2650,1776 2657,1759 2666,1749C2686,1727 2676,1705 2654,1723C2589,1776 2568,1807 2545,1880C2535,1913 2512,1929 2497,1914ZM2462,1655C2465,1641 2463,1630 2459,1630C2454,1630 2450,1641 2450,1655C2450,1669 2452,1680 2454,1680C2456,1680 2460,1669 2462,1655Z" style="fill-rule:nonzero;stroke:black;stroke-width:10px;"/>
                            <path d="M3490,1417C3490,1384 3514,1350 3538,1350C3544,1350 3566,1329 3587,1304C3608,1279 3642,1249 3663,1239C3684,1228 3709,1212 3718,1204C3748,1177 3810,1140 3825,1140C3859,1140 3829,1183 3777,1210C3725,1236 3587,1358 3542,1419C3511,1460 3490,1459 3490,1417Z" style="fill-rule:nonzero;stroke:black;stroke-width:10px;"/>
                            <path d="M3210,1355C3210,1295 3201,1275 3185,1301C3176,1315 3099,1370 3088,1370C3071,1370 3081,1331 3103,1313C3144,1280 3180,1224 3180,1192C3180,1166 3187,1158 3223,1138C3279,1107 3288,1070 3289,876C3290,731 3281,670 3247,605C3241,594 3231,575 3224,562C3213,539 3216,500 3229,500C3233,500 3243,513 3252,528C3275,566 3320,610 3336,610C3343,610 3391,642 3441,680C3492,719 3537,750 3542,750C3546,750 3564,778 3581,813C3598,847 3616,877 3619,880C3639,894 3688,997 3681,1009C3670,1027 3630,1006 3630,982C3630,961 3611,940 3593,940C3584,940 3580,959 3580,1009C3580,1048 3576,1081 3571,1085C3566,1088 3558,1105 3555,1123C3544,1174 3479,1301 3467,1297C3446,1290 3448,1261 3471,1213C3483,1188 3497,1137 3501,1101C3510,1026 3524,951 3539,900C3545,881 3550,862 3550,858C3550,842 3528,851 3510,873C3495,890 3489,892 3479,883C3469,873 3469,862 3480,830C3493,790 3493,789 3462,757C3444,739 3419,713 3406,698C3393,684 3372,670 3359,668C3324,663 3313,712 3329,809C3351,940 3350,940 3373,871C3388,826 3397,810 3409,812C3429,816 3427,893 3405,955C3398,977 3389,1006 3386,1020C3383,1034 3361,1069 3336,1099C3310,1131 3289,1168 3285,1189C3273,1257 3226,1420 3218,1420C3214,1420 3210,1391 3210,1355Z" style="fill-rule:nonzero;stroke:black;stroke-width:10px;"/>
                        </g>
                    </g>
                </g>
            </g>
        </g>
    </g>
</svg>
