<?xml version="1.0" encoding="UTF-8" standalone="no"?>
<!DOCTYPE svg PUBLIC "-//W3C//DTD SVG 1.1//EN" "http://www.w3.org/Graphics/SVG/1.1/DTD/svg11.dtd">
<svg width="100%" height="100%" viewBox="0 0 1280 720" version="1.1" xmlns="http://www.w3.org/2000/svg" xmlns:xlink="http://www.w3.org/1999/xlink" xml:space="preserve" xmlns:serif="http://www.serif.com/" style="fill-rule:evenodd;clip-rule:evenodd;stroke-linejoin:round;stroke-miterlimit:2;">
    <g transform="matrix(2.21559,0,0,2.86988,-785.216,-536.548)">
        <path d="M379.183,228.57L396.395,203.249C392.483,203.397 388.363,203.954 384.036,204.918C379.709,205.883 376.004,206.913 372.918,208.007C369.833,209.102 367.078,210.14 364.651,211.124C362.224,212.107 360.484,212.802 359.431,213.21C359.167,213.21 358.904,213.118 358.641,212.932C358.377,212.747 358.245,212.524 358.245,212.264C358.245,211.968 359.12,210.15 360.87,206.811C362.619,203.472 364.679,199.891 367.049,196.07C380.217,191.432 391.843,189.114 401.926,189.114C413.589,189.114 421.678,191.562 426.193,196.46C427.811,198.166 429.062,200.272 429.946,202.776C430.83,205.28 431.272,207.757 431.272,210.205C431.272,215.77 430.096,220.825 427.745,225.37C425.393,229.915 422.035,233.857 417.671,237.196C413.307,240.535 408.171,243.086 402.265,244.848C396.358,246.61 389.887,247.491 382.851,247.491C381.609,247.491 379.07,247.269 375.232,246.824L370.153,255.95C370.68,256.729 370.943,257.36 370.943,257.842C370.943,258.993 370.68,259.957 370.153,260.736C369.401,261.849 368.404,263.315 367.162,265.133C365.921,266.951 365.083,268.156 364.651,268.75C364.218,269.344 363.729,269.863 363.184,270.308C362.638,270.753 362.102,270.976 361.575,270.976C360.484,270.976 359.788,270.651 359.487,270.002C359.186,269.353 359.036,268.453 359.036,267.303C359.036,265.671 359.854,263.083 361.49,259.54C363.127,255.997 365.601,251.294 368.912,245.432C367.143,244.764 365.77,243.893 364.792,242.817C363.814,241.741 363.325,240.683 363.325,239.645C363.325,237.344 364.66,235.211 367.331,233.245C370.003,231.278 373.953,229.72 379.183,228.57ZM385.052,230.073L381.835,235.415C383.265,235.489 384.535,235.564 385.645,235.638C386.754,235.712 387.686,235.749 388.438,235.749C395.022,235.749 400.731,234.877 405.566,233.133C410.401,231.39 414.238,229.229 417.079,226.65C419.919,224.072 421.979,221.484 423.258,218.887C424.537,216.29 425.177,214.119 425.177,212.376C425.177,209.964 424.199,208.072 422.242,206.699C420.286,205.327 417.474,204.39 413.805,203.889C410.137,203.388 405.406,203.138 399.612,203.138C399.687,203.546 399.725,204.047 399.725,204.64C399.725,206.569 398.69,209.111 396.621,212.264L386.801,227.457L394.194,226.622C394.796,226.622 395.097,226.901 395.097,227.457C395.097,227.939 394.608,228.273 393.63,228.459L385.052,230.073Z" style="fill:white;fill-rule:nonzero;stroke:rgb(14,14,14);stroke-width:0.39px;"/>
    </g>
    <g transform="matrix(2.21559,0,0,2.86988,-785.216,-536.548)">
        <path d="M462.142,243.985L462.142,247.714C459.659,249.94 457.665,251.424 456.16,252.166C454.655,252.908 452.491,253.205 449.67,253.056C444.779,258.77 440.471,261.627 436.746,261.627C434.639,261.627 432.72,260.94 430.99,259.568C429.259,258.195 427.876,256.321 426.842,253.947C425.807,251.572 425.29,248.92 425.29,245.989C425.29,243.614 426.089,240.98 427.688,238.086C429.287,235.193 431.357,232.493 433.896,229.989C436.436,227.485 439.154,225.463 442.051,223.923C444.948,222.384 447.638,221.614 450.121,221.614C451.889,221.614 453.281,221.883 454.297,222.421C455.313,222.959 455.821,223.71 455.821,224.675C455.821,225.417 455.388,226.27 454.523,227.234C455.953,227.531 456.931,228.023 457.458,228.709C457.984,229.396 458.248,230.648 458.248,232.466C458.248,234.246 457.824,236.491 456.978,239.199C456.131,241.908 454.974,244.449 453.507,246.824L454.523,247.825L455.37,247.825C456.009,247.825 456.639,247.668 457.26,247.352C457.881,247.037 458.436,246.703 458.925,246.351C459.414,245.998 460.486,245.21 462.142,243.985ZM450.516,229.349C447.393,231.204 444.722,232.883 442.502,234.386C440.283,235.888 438.402,237.409 436.859,238.949C435.316,240.489 434.282,242.038 433.755,243.596C432.814,247.751 432.344,249.996 432.344,250.33C432.344,252.778 434.075,254.003 437.536,254.003C439.154,254.003 441.863,252.63 445.663,249.884C445.023,248.141 444.703,246.471 444.703,244.876C444.703,242.538 445.192,240.155 446.171,237.725C447.149,235.295 448.597,232.503 450.516,229.349Z" style="fill:white;fill-rule:nonzero;stroke:rgb(14,14,14);stroke-width:0.39px;"/>
    </g>
    <g transform="matrix(2.21559,0,0,2.86988,-785.216,-536.548)">
        <path d="M461.464,248.382L461.464,244.764C463.496,242.39 465.039,240.368 466.092,238.699C464.888,238.29 464.013,237.79 463.468,237.196C462.922,236.602 462.65,235.712 462.65,234.525C462.65,233.189 463.214,231.501 464.343,229.46C465.471,227.42 466.863,225.509 468.519,223.728C470.174,221.948 471.679,220.798 473.034,220.278C473.56,220.018 474.068,219.889 474.557,219.889C475.31,219.889 475.686,220.241 475.686,220.946C475.686,221.577 475.103,222.857 473.937,224.786C481.687,223.599 486.578,223.005 488.61,223.005C489.4,223.005 489.945,223.079 490.246,223.228C490.886,223.561 491.412,224.341 491.826,225.565C492.24,226.789 492.447,228.014 492.447,229.238C492.447,230.017 492.099,230.861 491.403,231.77C490.707,232.679 489.512,234.005 487.819,235.749C485.825,237.864 484.151,240.164 482.797,242.65C481.442,245.135 480.765,247.009 480.765,248.27C480.765,250.014 481.856,250.886 484.038,250.886C486.333,250.886 490.321,248.586 496.002,243.985L496.002,247.714C492.88,250.942 490.303,253.483 488.271,255.338C486.239,257.193 484.358,258.668 482.627,259.762C480.897,260.857 479.354,261.404 478,261.404C476.42,261.404 475.103,260.69 474.049,259.262C472.996,257.833 472.469,255.765 472.469,253.056C472.469,251.461 472.883,249.643 473.711,247.603C474.538,245.562 475.752,243.345 477.351,240.952C478.95,238.559 480.746,236.176 482.74,233.801C481.687,234.024 480.502,234.256 479.185,234.497C477.868,234.738 476.476,234.988 475.009,235.248C473.541,235.508 472.413,235.712 471.623,235.86C469.29,240.461 465.904,244.635 461.464,248.382Z" style="fill:white;fill-rule:nonzero;stroke:rgb(14,14,14);stroke-width:0.39px;"/>
    </g>
    <g transform="matrix(2.21559,0,0,2.86988,-785.216,-536.548)">
        <path d="M515.585,215.214L518.012,215.214C520.006,211.689 521.812,209.194 523.43,207.729C525.048,206.263 526.891,205.531 528.96,205.531C531.03,205.531 532.064,205.994 532.064,206.922C532.064,207.367 531.255,208.573 529.638,210.539C528.02,212.506 526.797,214.157 525.969,215.492C527.248,215.641 528.387,215.77 529.384,215.882C530.381,215.993 531.161,216.086 531.726,216.16C529.581,220.093 526.891,224.118 523.655,228.236C522.602,228.162 521.718,228.097 521.003,228.041C520.288,227.986 519.564,227.93 518.83,227.874C518.097,227.819 517.203,227.754 516.15,227.68C514.118,230.907 512.416,233.792 511.042,236.333C509.669,238.875 508.616,241.203 507.882,243.318C507.148,245.432 506.781,247.436 506.781,249.328C506.781,251.888 507.816,253.168 509.885,253.168C511.315,253.168 513.187,252.416 515.501,250.914C517.814,249.411 520.909,247.102 524.784,243.985L524.784,247.714C514.626,258.584 507.12,264.02 502.267,264.02C500.574,264.02 499.21,263.37 498.175,262.072C497.141,260.773 496.623,259.104 496.623,257.063C496.623,255.691 496.915,254.058 497.498,252.166C498.081,250.274 499.125,247.417 500.63,243.596C500.103,244.041 499.605,244.477 499.135,244.904C498.664,245.33 498.232,245.72 497.837,246.072C497.442,246.425 497.018,246.796 496.567,247.185C496.115,247.575 495.664,247.974 495.212,248.382L495.212,244.542C499.163,241.277 503.941,235.545 509.547,227.346C508.982,227.309 508.456,227.281 507.967,227.262C507.478,227.244 506.894,227.234 506.217,227.234C503.997,227.234 502.342,227.383 501.251,227.68C500.799,227.791 500.376,227.912 499.981,228.041C499.586,228.171 499.313,228.236 499.163,228.236C499.012,228.236 498.937,228.125 498.937,227.902C498.937,226.678 499.708,224.841 501.251,222.393C502.492,220.315 503.668,218.776 504.778,217.774C505.888,216.772 507.242,216.095 508.841,215.743C510.44,215.39 512.688,215.214 515.585,215.214Z" style="fill:white;fill-rule:nonzero;stroke:rgb(14,14,14);stroke-width:0.39px;"/>
    </g>
    <g transform="matrix(2.21559,0,0,2.86988,-785.216,-536.548)">
        <path d="M556.105,244.097L556.105,247.937C553.848,250.163 552.136,251.776 550.97,252.778C549.804,253.78 548.205,254.8 546.173,255.839C546.173,259.215 546.004,262.09 545.665,264.465C545.326,266.839 544.574,269.334 543.408,271.95C542.241,274.566 540.435,277.432 537.99,280.548C535.582,283.627 533.212,285.993 530.879,287.643C528.546,289.294 526.722,290.12 525.405,290.12C523.938,290.12 522.583,288.933 521.342,286.558C520.1,284.184 519.479,281.234 519.479,277.71C519.479,274.334 520.062,270.772 521.229,267.025C522.395,263.278 524.201,258.436 526.646,252.5C524.803,250.126 523.881,247.77 523.881,245.432C523.881,243.54 524.37,242.093 525.349,241.092C526.327,240.09 527.719,239.181 529.525,238.365C530.841,236.324 532.092,234.59 533.278,233.161C534.463,231.733 536.071,229.831 538.103,227.457C542.016,217.959 546.606,208.684 551.873,199.632C553.34,197.109 554.394,195.411 555.033,194.54C555.673,193.668 556.35,193.232 557.065,193.232C557.704,193.232 558.269,193.696 558.758,194.623C559.247,195.551 559.491,196.756 559.491,198.24C559.491,200.058 559.294,201.728 558.899,203.249C558.504,204.77 557.94,206.3 557.206,207.84C556.472,209.38 555.456,211.226 554.158,213.377C552.86,215.529 552.061,216.865 551.76,217.384C549.879,220.649 547.753,224.266 545.383,228.236C543.013,232.206 541.141,235.341 539.768,237.641C538.394,239.941 537.407,241.667 536.805,242.817C538.836,244.56 540.445,246.063 541.63,247.324C542.815,248.586 543.84,250.088 544.706,251.832C545.985,251.35 547.151,250.775 548.205,250.107C549.258,249.439 550.5,248.521 551.929,247.352C553.359,246.184 554.751,245.098 556.105,244.097ZM539.231,259.011L539.119,257.842C538.065,257.954 537.219,257.982 536.579,257.926C535.939,257.87 535.196,257.713 534.35,257.453C533.503,257.193 532.845,256.952 532.375,256.729C531.904,256.507 531.387,256.284 530.823,256.062C527.963,262.962 526.534,268.694 526.534,273.258C526.534,275.521 526.882,277.45 527.578,279.045C528.274,280.641 529.092,281.438 530.033,281.438C531.011,281.438 532.243,280.585 533.729,278.878C535.215,277.172 536.504,274.649 537.595,271.31C538.686,267.971 539.231,263.871 539.231,259.011Z" style="fill:white;fill-rule:nonzero;stroke:rgb(14,14,14);stroke-width:0.39px;"/>
    </g>
    <g transform="matrix(2.21559,0,0,2.86988,-785.216,-536.548)">
        <path d="M592.28,243.985L592.28,247.714C589.797,249.94 587.803,251.424 586.298,252.166C584.793,252.908 582.63,253.205 579.808,253.056C574.917,258.77 570.609,261.627 566.884,261.627C564.778,261.627 562.859,260.94 561.128,259.568C559.397,258.195 558.015,256.321 556.98,253.947C555.945,251.572 555.428,248.92 555.428,245.989C555.428,243.614 556.228,240.98 557.827,238.086C559.426,235.193 561.495,232.493 564.034,229.989C566.574,227.485 569.292,225.463 572.189,223.923C575.086,222.384 577.776,221.614 580.259,221.614C582.028,221.614 583.42,221.883 584.436,222.421C585.451,222.959 585.959,223.71 585.959,224.675C585.959,225.417 585.527,226.27 584.661,227.234C586.091,227.531 587.069,228.023 587.596,228.709C588.123,229.396 588.386,230.648 588.386,232.466C588.386,234.246 587.963,236.491 587.116,239.199C586.27,241.908 585.113,244.449 583.646,246.824L584.661,247.825L585.508,247.825C586.147,247.825 586.778,247.668 587.398,247.352C588.019,247.037 588.574,246.703 589.063,246.351C589.552,245.998 590.625,245.21 592.28,243.985ZM580.654,229.349C577.532,231.204 574.861,232.883 572.641,234.386C570.421,235.888 568.54,237.409 566.997,238.949C565.455,240.489 564.42,242.038 563.893,243.596C562.953,247.751 562.483,249.996 562.483,250.33C562.483,252.778 564.213,254.003 567.674,254.003C569.292,254.003 572.001,252.63 575.801,249.884C575.161,248.141 574.842,246.471 574.842,244.876C574.842,242.538 575.331,240.155 576.309,237.725C577.287,235.295 578.736,232.503 580.654,229.349Z" style="fill:white;fill-rule:nonzero;stroke:rgb(14,14,14);stroke-width:0.39px;"/>
    </g>
    <g transform="matrix(2.21559,0,0,2.86988,-785.216,-536.548)">
        <path d="M619.143,243.485L619.143,247.603C611.28,257.88 604.884,263.018 599.955,263.018C597.284,263.018 595.186,261.58 593.663,258.705C592.139,255.83 591.377,252.055 591.377,247.38C591.377,243.596 592.28,239.097 594.086,233.885C595.892,228.672 598.309,223.385 601.338,218.024C604.366,212.663 607.508,207.989 610.762,204C614.017,200.012 617.036,197.22 619.82,195.625C620.949,194.957 621.833,194.623 622.473,194.623C623.263,194.623 623.789,194.966 624.053,195.653C624.316,196.339 624.448,197.517 624.448,199.186C624.448,204.343 622.322,210.678 618.071,218.191C613.819,225.704 607.894,233.375 600.294,241.203C599.917,243.132 599.729,244.616 599.729,245.655C599.729,248.029 600.247,249.959 601.281,251.443C602.316,252.927 603.755,253.669 605.599,253.669C606.539,253.669 607.555,253.307 608.646,252.583C609.737,251.86 610.885,250.96 612.089,249.884C613.293,248.808 615.644,246.675 619.143,243.485ZM602.269,233.467C604.225,231.575 606.116,229.423 607.941,227.012C609.765,224.6 611.487,222.022 613.104,219.276C614.722,216.531 615.992,214.064 616.914,211.875C617.836,209.686 618.296,208.035 618.296,206.922C618.296,206.069 617.995,205.642 617.393,205.642C617.168,205.642 616.735,205.846 616.095,206.254C613.8,208.109 611.223,211.736 608.364,217.134C605.505,222.532 603.473,227.976 602.269,233.467Z" style="fill:white;fill-rule:nonzero;stroke:rgb(14,14,14);stroke-width:0.39px;"/>
    </g>
    <g transform="matrix(2.21559,0,0,2.86988,-785.216,-536.548)">
        <path d="M641.773,219.221C640.833,219.221 639.939,218.868 639.093,218.163C638.246,217.458 637.823,216.568 637.823,215.492C637.823,213.86 638.613,212.042 640.193,210.038C641.773,208.035 643.41,207.033 645.103,207.033C646.232,207.033 647.172,207.376 647.925,208.063C648.677,208.749 649.053,209.742 649.053,211.04C649.053,212.635 648.282,214.398 646.739,216.327C645.197,218.256 643.541,219.221 641.773,219.221ZM645.611,244.097L645.611,248.159C641.961,252.797 638.556,256.293 635.396,258.649C632.236,261.005 629.546,262.183 627.326,262.183C624.241,262.183 621.946,260.588 620.441,257.397C618.936,254.207 618.184,250.719 618.184,246.935C618.184,245.488 618.334,244.106 618.635,242.789C618.936,241.472 619.293,240.387 619.707,239.533C620.121,238.68 620.892,237.344 622.021,235.526C627.364,227.327 632.255,223.228 636.694,223.228C638.989,223.228 640.137,224.099 640.137,225.843C640.137,227.03 639.394,228.885 637.907,231.408C636.421,233.931 635.095,235.73 633.929,236.806C630.656,239.923 628.52,242.093 627.523,243.318C626.526,244.542 626.028,245.933 626.028,247.491C626.028,248.827 626.536,249.94 627.552,250.83C628.567,251.721 629.884,252.166 631.502,252.166C633.27,252.166 635.217,251.526 637.343,250.246C639.469,248.966 642.225,246.916 645.611,244.097Z" style="fill:white;fill-rule:nonzero;stroke:rgb(14,14,14);stroke-width:0.39px;"/>
    </g>
    <g transform="matrix(2.21559,0,0,2.86988,-785.216,-536.548)">
        <path d="M681.39,243.985L681.39,247.714C678.907,249.94 676.913,251.424 675.408,252.166C673.903,252.908 671.74,253.205 668.918,253.056C664.027,258.77 659.719,261.627 655.995,261.627C653.888,261.627 651.969,260.94 650.238,259.568C648.508,258.195 647.125,256.321 646.09,253.947C645.056,251.572 644.539,248.92 644.539,245.989C644.539,243.614 645.338,240.98 646.937,238.086C648.536,235.193 650.605,232.493 653.145,229.989C655.684,227.485 658.403,225.463 661.3,223.923C664.197,222.384 666.887,221.614 669.37,221.614C671.138,221.614 672.53,221.883 673.546,222.421C674.562,222.959 675.07,223.71 675.07,224.675C675.07,225.417 674.637,226.27 673.772,227.234C675.201,227.531 676.18,228.023 676.706,228.709C677.233,229.396 677.496,230.648 677.496,232.466C677.496,234.246 677.073,236.491 676.227,239.199C675.38,241.908 674.223,244.449 672.756,246.824L673.772,247.825L674.618,247.825C675.258,247.825 675.888,247.668 676.509,247.352C677.13,247.037 677.684,246.703 678.174,246.351C678.663,245.998 679.735,245.21 681.39,243.985ZM669.765,229.349C666.642,231.204 663.971,232.883 661.751,234.386C659.531,235.888 657.65,237.409 656.108,238.949C654.565,240.489 653.53,242.038 653.004,243.596C652.063,247.751 651.593,249.996 651.593,250.33C651.593,252.778 653.323,254.003 656.785,254.003C658.403,254.003 661.111,252.63 664.911,249.884C664.272,248.141 663.952,246.471 663.952,244.876C663.952,242.538 664.441,240.155 665.419,237.725C666.398,235.295 667.846,232.503 669.765,229.349Z" style="fill:white;fill-rule:nonzero;stroke:rgb(14,14,14);stroke-width:0.39px;"/>
    </g>
    <g transform="matrix(2.21559,0,0,2.86988,-785.216,-536.548)">
        <path d="M441.764,375.229L420.488,364.989C415.071,372.298 412.042,377.121 411.402,379.458C410.951,381.128 409.945,382.528 408.383,383.66C406.822,384.791 405.703,385.357 405.025,385.357C403.107,385.357 402.147,384.634 402.147,383.187C402.147,382.371 403.285,380.024 405.561,376.147C407.838,372.27 410.97,367.697 414.958,362.429C412.738,361.539 411.365,360.945 410.838,360.648C410.311,360.351 410.104,359.786 410.217,358.951C410.33,358.116 410.989,356.808 412.193,355.027C413.246,353.469 414.036,352.421 414.563,351.883C415.09,351.345 415.71,350.919 416.425,350.603C417.14,350.288 417.892,350.074 418.683,349.963C419.473,349.852 421.692,349.574 425.342,349.128C428.314,345.159 431.54,340.874 435.02,336.273C438.501,331.673 441.219,328.092 443.175,325.532C437.268,326.312 433.149,326.961 430.816,327.48C428.333,327.963 426.254,328.361 424.58,328.677C422.906,328.992 421.73,329.27 421.053,329.511C420.376,329.753 420.037,330.096 420.037,330.541C420.037,330.949 420.451,331.227 421.279,331.376C422.106,331.524 423.15,331.598 424.411,331.598C425.671,331.598 426.649,331.645 427.345,331.738C428.041,331.83 428.389,332.044 428.389,332.378C428.389,332.749 427.928,332.962 427.007,333.017C426.085,333.073 423.498,333.194 419.247,333.379C416.839,333.453 414.817,333.528 413.18,333.602C411.544,333.676 410.405,333.713 409.766,333.713C408.901,333.713 408.223,333.453 407.734,332.934C407.245,332.415 407.001,331.728 407.001,330.875C407.001,330.244 407.358,329.076 408.073,327.369C408.788,325.662 409.803,323.937 411.12,322.193C412.437,320.45 413.942,319.096 415.635,318.131C417.554,316.981 420.535,315.821 424.58,314.653C428.624,313.484 433.12,312.538 438.068,311.815C443.015,311.091 447.916,310.729 452.769,310.729C455.704,310.729 458.572,310.896 461.375,311.23C464.178,311.564 466.718,311.972 468.994,312.454C471.27,312.937 473.067,313.419 474.384,313.901C477.807,315.014 480.431,316.703 482.256,318.966C484.081,321.229 484.993,323.715 484.993,326.423C484.993,329.057 484.532,331.626 483.611,334.131C482.689,336.635 481.278,338.954 479.378,341.087C477.478,343.22 475.192,344.955 472.521,346.29C470.339,347.403 467.028,348.535 462.589,349.685C458.149,350.835 452.788,351.855 446.505,352.746C440.222,353.636 433.205,354.285 425.455,354.694C431.249,356.697 436.657,358.71 441.68,360.732C446.702,362.754 450.935,364.553 454.377,366.13C457.82,367.707 460.519,368.996 462.476,369.998C465.222,371.407 467.009,372.428 467.837,373.058C468.665,373.689 469.21,374.505 469.474,375.507C469.737,376.509 469.869,378.16 469.869,380.46C469.869,383.057 469.709,384.977 469.389,386.22C469.069,387.463 468.383,388.084 467.329,388.084C466.991,388.084 466.097,387.722 464.649,386.999C463.2,386.275 461.197,385.218 458.638,383.827C456.08,382.435 453.757,381.193 451.669,380.098C449.581,379.004 446.279,377.381 441.764,375.229ZM446.731,324.976C446.768,325.236 446.796,325.477 446.815,325.699C446.834,325.922 446.843,326.237 446.843,326.645C446.843,327.684 446.514,328.881 445.856,330.235C445.197,331.589 444.351,332.98 443.316,334.409C442.282,335.837 440.739,337.878 438.689,340.53C436.638,343.183 434.748,345.622 433.017,347.848C440.918,346.364 447.662,344.936 453.249,343.563C458.836,342.191 463.435,340.809 467.047,339.417C470.659,338.026 473.377,336.561 475.202,335.021C477.027,333.481 477.939,331.877 477.939,330.207C477.939,328.352 476.03,326.896 472.211,325.839C468.392,324.781 463.717,324.252 458.187,324.252C457.058,324.252 455.864,324.28 454.603,324.336C453.343,324.392 451.838,324.503 450.088,324.67C448.339,324.837 447.22,324.939 446.731,324.976Z" style="fill:white;fill-rule:nonzero;stroke:rgb(14,14,14);stroke-width:0.39px;"/>
    </g>
    <g transform="matrix(2.21559,0,0,2.86988,-785.216,-536.548)">
        <path d="M497.804,337.943C496.863,337.943 495.97,337.59 495.123,336.885C494.277,336.18 493.853,335.29 493.853,334.214C493.853,332.582 494.644,330.764 496.224,328.76C497.804,326.757 499.441,325.755 501.134,325.755C502.262,325.755 503.203,326.098 503.955,326.785C504.708,327.471 505.084,328.463 505.084,329.762C505.084,331.357 504.313,333.12 502.77,335.049C501.228,336.978 499.572,337.943 497.804,337.943ZM501.641,362.819L501.641,366.881C497.992,371.519 494.587,375.015 491.427,377.371C488.266,379.727 485.576,380.905 483.357,380.905C480.272,380.905 477.977,379.31 476.472,376.119C474.967,372.928 474.214,369.441 474.214,365.657C474.214,364.21 474.365,362.828 474.666,361.511C474.967,360.194 475.324,359.108 475.738,358.255C476.152,357.402 476.923,356.066 478.052,354.248C483.394,346.049 488.285,341.949 492.725,341.949C495.02,341.949 496.167,342.821 496.167,344.565C496.167,345.752 495.424,347.607 493.938,350.13C492.452,352.653 491.126,354.452 489.96,355.528C486.686,358.645 484.551,360.815 483.554,362.039C482.557,363.264 482.059,364.655 482.059,366.213C482.059,367.549 482.567,368.662 483.582,369.552C484.598,370.443 485.915,370.888 487.533,370.888C489.301,370.888 491.248,370.248 493.374,368.968C495.5,367.688 498.255,365.638 501.641,362.819Z" style="fill:white;fill-rule:nonzero;stroke:rgb(14,14,14);stroke-width:0.39px;"/>
    </g>
    <g transform="matrix(2.21559,0,0,2.86988,-785.216,-536.548)">
        <path d="M543.685,362.819L543.685,366.547C539.472,371.407 535.935,375.09 533.076,377.594C530.216,380.098 527.827,381.35 525.908,381.35C524.065,381.35 522.4,380.812 520.914,379.736C519.428,378.66 518.092,377.176 516.907,375.284C515.722,373.392 514.32,370.758 512.703,367.382C510.784,369.719 509.053,371.899 507.511,373.921C505.968,375.943 504.896,377.288 504.294,377.956C503.692,378.623 503.146,378.957 502.657,378.957C501.641,378.957 500.908,378.317 500.456,377.037C500.005,375.757 499.779,373.893 499.779,371.444C499.779,368.105 500.184,364.887 500.992,361.789C501.801,358.691 502.968,355.677 504.491,352.746C506.015,349.815 507.972,346.652 510.361,343.257C512.75,339.863 515.43,336.31 518.403,332.6C522.503,327.48 526.04,323.297 529.012,320.051C531.985,316.805 534.571,314.356 536.772,312.705C538.973,311.054 540.807,310.228 542.274,310.228C544.08,310.228 544.983,311.026 544.983,312.621C544.983,313.994 541.654,318.938 534.994,327.452C528.335,335.967 518.628,347.589 505.874,362.318L505.874,367.104C514.415,358.088 521.29,351.392 526.501,347.014C531.712,342.636 535.747,340.447 538.606,340.447C539.772,340.447 540.675,341.124 541.315,342.478C541.955,343.832 542.274,345.4 542.274,347.181C542.274,350.817 540.694,354.183 537.534,357.281C534.374,360.379 529.52,363.932 522.974,367.938C524.102,369.608 525.099,370.823 525.965,371.584C526.83,372.344 527.921,372.724 529.238,372.724C530.404,372.724 531.665,372.335 533.019,371.556C534.374,370.777 535.756,369.793 537.167,368.606C538.578,367.419 540.751,365.49 543.685,362.819ZM521.394,365.657C522.823,364.729 524.601,363.292 526.727,361.344C528.852,359.396 530.668,357.374 532.173,355.278C533.678,353.182 534.43,351.429 534.43,350.019C534.43,349.425 534.167,349.128 533.64,349.128C532.21,349.128 529.755,350.483 526.275,353.191C522.795,355.899 519.4,359.368 516.089,363.598C517.518,363.598 519.287,364.284 521.394,365.657Z" style="fill:white;fill-rule:nonzero;stroke:rgb(14,14,14);stroke-width:0.39px;"/>
    </g>
    <g transform="matrix(2.21559,0,0,2.86988,-785.216,-536.548)">
        <path d="M569.927,359.034C564.472,366.158 560.324,371.222 557.484,374.227C554.643,377.232 552.32,378.735 550.514,378.735C549.084,378.735 547.767,378.15 546.563,376.982C545.36,375.813 544.428,374.236 543.77,372.251C543.112,370.266 542.782,368.142 542.782,365.879C542.782,364.395 542.923,363.06 543.206,361.872C543.488,360.685 544.024,359.377 544.814,357.949C545.604,356.521 546.648,354.972 547.946,353.302C549.244,351.633 550.834,349.741 552.715,347.626C553.844,346.327 554.794,345.233 555.565,344.342C556.336,343.452 557.089,342.849 557.822,342.534C558.556,342.218 559.75,342.061 561.406,342.061C562.61,342.061 563.757,342.218 564.848,342.534C565.939,342.849 566.485,343.174 566.485,343.508C566.485,344.175 565.93,345.381 564.82,347.125C563.71,348.869 561.923,350.993 559.459,353.497C556.994,356.001 554.145,358.459 550.909,360.871C550.194,363.06 549.837,364.729 549.837,365.879C549.837,367.475 550.457,368.272 551.699,368.272C552.15,368.272 552.903,367.892 553.956,367.131C555.01,366.371 556.788,364.905 559.289,362.735C561.791,360.565 564.039,358.645 566.033,356.975C567.501,355.714 569.203,353.831 571.141,351.327C573.078,348.822 574.649,346.939 575.853,345.678C578.637,342.784 580.537,340.901 581.553,340.03C582.569,339.158 583.547,338.722 584.488,338.722C585.391,338.722 586.002,339 586.322,339.556C586.641,340.113 586.801,341.245 586.801,342.951C586.801,343.73 586.726,344.361 586.576,344.843C586.425,345.326 586.115,345.947 585.644,346.708C585.174,347.468 584.224,348.869 582.795,350.909C581.365,352.95 579.672,355.361 577.715,358.144C576.662,359.628 575.74,361.251 574.95,363.013C574.16,364.776 573.765,366.102 573.765,366.992C573.765,368.922 574.536,369.886 576.079,369.886C577.358,369.886 578.844,369.367 580.537,368.328C582.23,367.289 584.826,365.416 588.325,362.707L588.325,366.436C583.923,370.443 580.669,373.355 578.562,375.173C576.455,376.991 574.63,378.364 573.088,379.291C571.545,380.219 570.078,380.682 568.686,380.682C565.526,380.682 563.945,378.827 563.945,375.117C563.945,373.708 564.416,371.806 565.356,369.413C566.297,367.02 567.821,363.561 569.927,359.034Z" style="fill:white;fill-rule:nonzero;stroke:rgb(14,14,14);stroke-width:0.39px;"/>
    </g>
    <g transform="matrix(2.21559,0,0,2.86988,-785.216,-536.548)">
        <path d="M687.876,386.748C687.424,386.748 686.757,386.507 685.872,386.025C684.988,385.543 683.709,384.717 682.035,383.548C680.361,382.38 678.47,381.091 676.363,379.681L645.832,359.479L636.802,371.222C636.802,372.224 636.671,372.975 636.407,373.476C636.144,373.977 635.58,374.672 634.714,375.563C632.645,377.677 630.886,379.291 629.438,380.404C627.989,381.517 626.682,382.074 625.516,382.074C624.951,382.074 624.462,381.842 624.048,381.378C623.634,380.914 623.427,380.349 623.427,379.681C623.427,378.79 623.954,377.603 625.008,376.119L641.543,355.862C640.565,354.341 640.076,352.783 640.076,351.188C640.076,349.555 640.537,348.164 641.458,347.014C642.38,345.864 643.443,344.936 644.647,344.231C645.851,343.526 649.18,341.745 654.636,338.889C662.386,328.76 666.261,323.084 666.261,321.859C666.261,321.043 665.772,320.635 664.794,320.635C663.778,320.635 661.53,321.229 658.05,322.416C654.57,323.603 649.999,325.43 644.337,327.898C638.674,330.365 631.968,333.528 624.218,337.386C623.578,337.72 622.854,337.859 622.045,337.803C621.236,337.748 620.549,337.432 619.985,336.857C619.421,336.282 619.138,335.513 619.138,334.548C619.138,334.251 619.204,333.899 619.336,333.491C619.468,333.082 619.684,332.442 619.985,331.571C620.286,330.699 620.549,329.929 620.775,329.261C620.85,329.038 621.029,328.241 621.311,326.868C621.593,325.495 622.073,324.243 622.75,323.112C623.427,321.98 624.584,320.728 626.221,319.355C627.858,317.982 630.2,316.536 633.247,315.014C633.811,314.681 634.338,314.467 634.827,314.374C635.316,314.282 635.561,314.421 635.561,314.792C635.561,314.903 635.006,315.358 633.896,316.155C632.786,316.953 631.573,318.261 630.256,320.079C641.242,316.294 649.34,313.632 654.551,312.093C659.762,310.553 663.948,309.783 667.108,309.783C668.839,309.783 670.287,310.943 671.453,313.261C672.62,315.58 673.203,317.092 673.203,317.797C673.203,318.836 672.789,320.004 671.961,321.303L662.932,334.659C670.08,331.172 675.639,328.398 679.608,326.339C683.577,324.28 687.895,322.036 692.56,319.606C697.225,317.176 700.179,315.654 701.42,315.042C702.662,314.43 703.471,314.124 703.847,314.124C704.712,314.124 705.145,314.514 705.145,315.293C705.145,315.738 704.496,316.953 703.198,318.938C701.9,320.923 700.461,322.704 698.881,324.28C697.3,325.857 695.984,326.645 694.93,326.645C694.667,326.645 694.347,326.581 693.971,326.451C693.595,326.321 693.237,326.2 692.899,326.089C687.819,328.686 681.602,331.765 674.247,335.327C666.892,338.889 661.088,341.671 656.837,343.675L651.983,350.854L680.596,369.998C683.229,371.741 685.139,373.133 686.324,374.171C687.509,375.21 688.393,376.342 688.976,377.566C689.559,378.79 689.851,380.33 689.851,382.185C689.851,385.227 689.193,386.748 687.876,386.748Z" style="fill:white;fill-rule:nonzero;stroke:rgb(14,14,14);stroke-width:0.39px;"/>
    </g>
    <g transform="matrix(2.21559,0,0,2.86988,-785.216,-536.548)">
        <path d="M719.197,337.943C718.257,337.943 717.363,337.59 716.516,336.885C715.67,336.18 715.247,335.29 715.247,334.214C715.247,332.582 716.037,330.764 717.617,328.76C719.197,326.757 720.834,325.755 722.527,325.755C723.655,325.755 724.596,326.098 725.348,326.785C726.101,327.471 726.477,328.463 726.477,329.762C726.477,331.357 725.706,333.12 724.163,335.049C722.621,336.978 720.965,337.943 719.197,337.943ZM723.035,362.819L723.035,366.881C719.385,371.519 715.98,375.015 712.82,377.371C709.66,379.727 706.97,380.905 704.75,380.905C701.665,380.905 699.37,379.31 697.865,376.119C696.36,372.928 695.607,369.441 695.607,365.657C695.607,364.21 695.758,362.828 696.059,361.511C696.36,360.194 696.717,359.108 697.131,358.255C697.545,357.402 698.316,356.066 699.445,354.248C704.787,346.049 709.678,341.949 714.118,341.949C716.413,341.949 717.56,342.821 717.56,344.565C717.56,345.752 716.817,347.607 715.331,350.13C713.845,352.653 712.519,354.452 711.353,355.528C708.079,358.645 705.944,360.815 704.947,362.039C703.95,363.264 703.452,364.655 703.452,366.213C703.452,367.549 703.96,368.662 704.976,369.552C705.991,370.443 707.308,370.888 708.926,370.888C710.694,370.888 712.641,370.248 714.767,368.968C716.893,367.688 719.649,365.638 723.035,362.819Z" style="fill:white;fill-rule:nonzero;stroke:rgb(14,14,14);stroke-width:0.39px;"/>
    </g>
    <g transform="matrix(2.21559,0,0,2.86988,-785.216,-536.548)">
        <path d="M748.317,370.443C753.509,365.916 757.968,361.975 761.692,358.617C765.417,355.259 768.342,352.616 770.468,350.687C772.594,348.757 774.465,347.125 776.083,345.789C777.701,344.454 778.736,343.786 779.187,343.786C780.052,343.749 780.88,344.63 781.67,346.429C782.46,348.229 782.855,349.666 782.855,350.742C782.855,351.447 781.661,353.107 779.272,355.723C776.883,358.339 775.096,360.426 773.91,361.984C772.725,363.542 772.133,365.174 772.133,366.881C772.133,367.883 772.471,368.69 773.149,369.302C773.826,369.914 774.635,370.22 775.575,370.22C776.666,370.22 777.974,369.664 779.498,368.551C781.021,367.438 783.42,365.453 786.693,362.596L786.693,366.547C783.42,369.589 780.448,372.214 777.776,374.422C775.105,376.629 772.782,378.28 770.807,379.375C768.831,380.469 767.185,381.016 765.869,381.016C764.702,381.016 763.724,380.58 762.934,379.709C762.144,378.837 761.749,377.752 761.749,376.453C761.749,375.192 761.975,373.912 762.426,372.613C762.878,371.315 763.574,369.775 764.514,367.994C765.455,366.213 766.696,364.071 768.239,361.566C769.781,359.062 771.192,356.771 772.471,354.694C768.634,357.773 765.229,360.741 762.257,363.598C759.285,366.454 756.858,368.949 754.977,371.083C753.096,373.216 751.609,374.895 750.518,376.119C748.411,378.419 746.455,379.569 744.649,379.569C742.693,379.569 741.715,378.197 741.715,375.451C741.715,374.338 742.448,372.344 743.915,369.469C745.383,366.594 747.471,362.93 750.18,358.478C750.405,358.181 750.518,357.717 750.518,357.087C750.518,356.344 750.142,355.973 749.39,355.973C748.562,355.973 747.367,356.743 745.806,358.283C744.245,359.823 741.225,363.041 736.748,367.938C735.507,369.311 734.105,371.101 732.544,373.309C730.983,375.516 729.863,376.991 729.186,377.733C728.509,378.475 727.832,378.846 727.154,378.846C725.8,378.846 724.54,377.659 723.373,375.284C722.207,372.91 721.624,370.146 721.624,366.992C721.624,364.692 722.009,362.707 722.781,361.038C723.552,359.368 724.746,357.291 726.364,354.805C728.885,351.206 730.945,348.637 732.544,347.097C734.143,345.557 735.827,344.788 737.595,344.788C738.686,344.788 739.608,345.001 740.36,345.428C741.113,345.854 741.489,346.439 741.489,347.181C741.489,347.96 740.802,349.24 739.429,351.021C738.056,352.801 736.316,354.638 734.209,356.53C733.08,357.606 732.008,358.932 730.992,360.509C729.976,362.086 729.468,363.227 729.468,363.932C729.468,364.933 729.863,365.434 730.653,365.434C731.293,365.434 732.911,364.136 735.507,361.539C738.103,358.942 740.953,356.113 744.057,353.052C747.16,349.991 750.039,347.45 752.691,345.428C755.343,343.406 757.591,342.395 759.435,342.395C760.564,342.395 761.495,342.812 762.229,343.647C762.962,344.482 763.329,345.511 763.329,346.735C763.329,347.552 762.765,349.026 761.636,351.16C760.507,353.293 758.861,355.927 756.698,359.062C754.535,362.197 751.741,365.991 748.317,370.443Z" style="fill:white;fill-rule:nonzero;stroke:rgb(14,14,14);stroke-width:0.39px;"/>
    </g>
    <g transform="matrix(2.21559,0,0,2.86988,-785.216,-536.548)">
        <path d="M812.879,359.034C807.423,366.158 803.275,371.222 800.435,374.227C797.594,377.232 795.271,378.735 793.465,378.735C792.035,378.735 790.719,378.15 789.515,376.982C788.311,375.813 787.38,374.236 786.721,372.251C786.063,370.266 785.734,368.142 785.734,365.879C785.734,364.395 785.875,363.06 786.157,361.872C786.439,360.685 786.975,359.377 787.765,357.949C788.555,356.521 789.599,354.972 790.897,353.302C792.195,351.633 793.785,349.741 795.666,347.626C796.795,346.327 797.745,345.233 798.516,344.342C799.287,343.452 800.04,342.849 800.773,342.534C801.507,342.218 802.702,342.061 804.357,342.061C805.561,342.061 806.708,342.218 807.8,342.534C808.891,342.849 809.436,343.174 809.436,343.508C809.436,344.175 808.881,345.381 807.771,347.125C806.661,348.869 804.874,350.993 802.41,353.497C799.946,356.001 797.096,358.459 793.86,360.871C793.145,363.06 792.788,364.729 792.788,365.879C792.788,367.475 793.409,368.272 794.65,368.272C795.102,368.272 795.854,367.892 796.908,367.131C797.961,366.371 799.739,364.905 802.241,362.735C804.743,360.565 806.991,358.645 808.985,356.975C810.452,355.714 812.154,353.831 814.092,351.327C816.03,348.822 817.6,346.939 818.804,345.678C821.588,342.784 823.488,340.901 824.504,340.03C825.52,339.158 826.498,338.722 827.439,338.722C828.342,338.722 828.953,339 829.273,339.556C829.593,340.113 829.753,341.245 829.753,342.951C829.753,343.73 829.677,344.361 829.527,344.843C829.376,345.326 829.066,345.947 828.596,346.708C828.125,347.468 827.175,348.869 825.746,350.909C824.316,352.95 822.623,355.361 820.667,358.144C819.613,359.628 818.691,361.251 817.901,363.013C817.111,364.776 816.716,366.102 816.716,366.992C816.716,368.922 817.487,369.886 819.03,369.886C820.309,369.886 821.795,369.367 823.488,368.328C825.181,367.289 827.777,365.416 831.276,362.707L831.276,366.436C826.874,370.443 823.62,373.355 821.513,375.173C819.406,376.991 817.582,378.364 816.039,379.291C814.496,380.219 813.029,380.682 811.637,380.682C808.477,380.682 806.897,378.827 806.897,375.117C806.897,373.708 807.367,371.806 808.307,369.413C809.248,367.02 810.772,363.561 812.879,359.034Z" style="fill:white;fill-rule:nonzero;stroke:rgb(14,14,14);stroke-width:0.39px;"/>
    </g>
    <g transform="matrix(2.21559,0,0,2.86988,-785.216,-536.548)">
        <path d="M830.204,367.104L830.204,363.486C832.236,361.112 833.778,359.09 834.832,357.42C833.628,357.012 832.753,356.511 832.207,355.918C831.662,355.324 831.389,354.434 831.389,353.247C831.389,351.911 831.954,350.223 833.082,348.182C834.211,346.142 835.603,344.231 837.258,342.45C838.914,340.669 840.419,339.519 841.773,339C842.3,338.74 842.808,338.61 843.297,338.61C844.049,338.61 844.426,338.963 844.426,339.668C844.426,340.298 843.842,341.578 842.676,343.508C850.426,342.32 855.317,341.727 857.349,341.727C858.139,341.727 858.685,341.801 858.986,341.949C859.625,342.283 860.152,343.062 860.566,344.287C860.98,345.511 861.187,346.735 861.187,347.96C861.187,348.739 860.839,349.583 860.143,350.492C859.447,351.401 858.252,352.727 856.559,354.471C854.565,356.586 852.891,358.886 851.536,361.372C850.182,363.857 849.505,365.731 849.505,366.992C849.505,368.736 850.596,369.608 852.778,369.608C855.073,369.608 859.061,367.308 864.742,362.707L864.742,366.436C861.619,369.664 859.042,372.205 857.011,374.06C854.979,375.915 853.098,377.39 851.367,378.484C849.636,379.579 848.094,380.126 846.739,380.126C845.159,380.126 843.842,379.412 842.789,377.983C841.736,376.555 841.209,374.487 841.209,371.778C841.209,370.183 841.623,368.365 842.45,366.325C843.278,364.284 844.491,362.067 846.09,359.674C847.689,357.281 849.486,354.898 851.48,352.523C850.426,352.746 849.241,352.978 847.925,353.219C846.608,353.46 845.216,353.71 843.748,353.97C842.281,354.23 841.152,354.434 840.362,354.582C838.03,359.183 834.644,363.356 830.204,367.104Z" style="fill:white;fill-rule:nonzero;stroke:rgb(14,14,14);stroke-width:0.39px;"/>
    </g>
    <g transform="matrix(2.21559,0,0,2.86988,-785.216,-536.548)">
        <path d="M871.119,352.857C876.838,347.737 882.387,343.934 887.767,341.449C893.148,338.963 897.305,337.72 900.239,337.72C901.03,337.72 901.763,338.045 902.44,338.694C903.118,339.343 903.654,340.094 904.049,340.948C904.444,341.801 904.641,342.432 904.641,342.84C904.641,343.508 904.378,343.999 903.851,344.315C903.325,344.63 902.403,345.01 901.086,345.455C901.349,346.049 901.688,346.81 902.102,347.737C902.516,348.665 902.835,349.416 903.061,349.991C903.287,350.566 903.4,351.076 903.4,351.521C903.4,352.412 902.487,354.072 900.663,356.502C898.838,358.932 897.559,360.722 896.825,361.872C896.092,363.023 895.725,364.432 895.725,366.102C895.725,368.847 897.004,370.22 899.562,370.22C902.196,370.22 906.316,367.79 911.921,362.93L911.921,366.325C902.403,376.75 895.593,381.962 891.492,381.962C890.025,381.962 888.981,381.489 888.36,380.543C887.739,379.597 887.429,378.197 887.429,376.342C887.429,373.411 888.501,369.163 890.646,363.598C885.153,369.608 881.071,373.884 878.399,376.425C875.728,378.967 873.527,380.237 871.796,380.237C870.969,380.237 869.934,379.532 868.693,378.123C867.451,376.713 866.35,374.886 865.391,372.641C864.432,370.396 863.952,368.068 863.952,365.657C863.952,363.913 864.121,362.457 864.46,361.288C864.799,360.119 865.457,358.923 866.435,357.699C867.413,356.474 868.975,354.86 871.119,352.857ZM898.151,346.735C888.369,351.15 881.4,354.898 877.242,357.977C873.085,361.056 871.006,364.228 871.006,367.493C871.006,368.68 871.213,369.654 871.627,370.415C872.041,371.175 872.605,371.556 873.32,371.556C873.734,371.556 874.468,371.296 875.521,370.777C879.472,368.476 883.083,365.481 886.357,361.789C889.63,358.097 893.561,353.08 898.151,346.735Z" style="fill:white;fill-rule:nonzero;stroke:rgb(14,14,14);stroke-width:0.39px;"/>
    </g>
</svg>
